<svg width="40" height="40" viewBox="0 0 40 40" fill="none" xmlns="http://www.w3.org/2000/svg">
<path d="M15.5787 36.9618L15.5786 36.962C14.9584 37.7321 14.0705 38.217 12.8941 38.5085C11.7108 38.8018 10.2673 38.8914 8.57513 38.8914C6.88297 38.8914 5.43945 38.8018 4.25611 38.5085C3.07976 38.217 2.19188 37.7321 1.5717 36.962L1.57151 36.9618C1.03024 36.2906 0.746302 35.484 0.600999 34.4719C0.469421 33.5554 0.455027 32.5017 0.453457 31.2584L1.52836 31.2226L1.51326 30.3163H0.454186C0.459736 29.0616 0.49336 27.9819 0.633519 27.0545C0.789699 26.021 1.07311 25.2158 1.56502 24.5908C2.54013 23.3518 4.48043 22.6477 8.57513 22.6477C12.6698 22.6477 14.6101 23.3518 15.5852 24.5908C16.0771 25.2158 16.3606 26.021 16.5167 27.0545C16.6735 28.0917 16.697 29.3195 16.697 30.7696C16.697 32.2303 16.696 33.4362 16.5492 34.4652C16.4038 35.4839 16.1198 36.2908 15.5787 36.9618ZM37.7732 36.9618L37.773 36.962C37.1528 37.7321 36.2649 38.217 35.0886 38.5085C33.9053 38.8018 32.4617 38.8914 30.7696 38.8914C29.0774 38.8914 27.6339 38.8018 26.4506 38.5085C25.2742 38.217 24.3863 37.7321 23.7661 36.962L23.766 36.9618C23.2247 36.2906 22.9407 35.484 22.7954 34.4719C22.6639 33.5554 22.6495 32.5017 22.6479 31.2584L23.7228 31.2226L23.7077 30.3163H22.6486C22.6542 29.0616 22.6878 27.9819 22.828 27.0545C22.9841 26.021 23.2676 25.2158 23.7595 24.5908C24.7346 23.3518 26.6749 22.6477 30.7696 22.6477C34.8643 22.6477 36.8046 23.3518 37.7797 24.5908C38.2716 25.2158 38.555 26.021 38.7112 27.0545C38.8679 28.0917 38.8914 29.3195 38.8914 30.7696C38.8914 32.2303 38.8905 33.4362 38.7436 34.4652C38.5983 35.4839 38.3143 36.2908 37.7732 36.9618ZM8.99319 24.7686L8.99208 24.7686L8.57611 24.7677H8.57513C7.26143 24.7677 6.22853 24.7907 5.42819 24.8999C4.6305 25.0087 3.99508 25.2108 3.53115 25.6234C3.05817 26.0441 2.83043 26.6225 2.71261 27.3291C2.59605 28.0282 2.57744 28.9171 2.574 30.0157L2.574 30.0173L2.57484 31.7386L2.57485 31.7409C2.57963 32.619 2.59853 33.4003 2.6788 34.0403C2.7572 34.6653 2.9022 35.2373 3.21967 35.6332L3.22073 35.6346C3.5946 36.0973 4.26502 36.3638 5.1089 36.5271C5.97445 36.6946 7.12464 36.7715 8.57513 36.7715C10.0257 36.7715 11.176 36.6941 12.0416 36.5261C12.8856 36.3622 13.5558 36.0951 13.9295 35.6325L13.9302 35.6317C14.2969 35.1757 14.4384 34.4762 14.5069 33.7064C14.577 32.9183 14.577 31.9395 14.577 30.8367V30.818V30.7918C14.577 29.5526 14.577 28.5542 14.4943 27.7711C14.4112 26.9848 14.2385 26.3339 13.8295 25.846C13.4122 25.348 12.8111 25.0917 12.0397 24.951C11.2739 24.8113 10.2745 24.7745 8.99319 24.7686ZM31.1876 24.7686L31.1865 24.7686L30.7706 24.7677H30.7696C29.4559 24.7677 28.423 24.7907 27.6226 24.8999C26.8249 25.0087 26.1895 25.2108 25.7256 25.6234C25.2526 26.0441 25.0249 26.6225 24.9071 27.3291C24.7905 28.0282 24.7719 28.9171 24.7684 30.0157V30.0173L24.7693 31.7386L24.7693 31.7409C24.7741 32.619 24.793 33.4003 24.8732 34.0403C24.9516 34.6653 25.0966 35.2373 25.4141 35.6332L25.4152 35.6346C25.789 36.0973 26.4595 36.3638 27.3033 36.5271C28.1689 36.6946 29.3191 36.7715 30.7696 36.7715C32.2202 36.7715 33.3704 36.6941 34.2361 36.5261C35.0801 36.3622 35.7502 36.0951 36.124 35.6325L36.1246 35.6317C36.4913 35.1757 36.6328 34.4762 36.7013 33.7064C36.7715 32.9183 36.7715 31.9395 36.7715 30.8367V30.818V30.7917C36.7715 29.5525 36.7715 28.5542 36.6887 27.7711C36.6057 26.9848 36.433 26.3339 36.024 25.846C35.6067 25.348 35.0056 25.0917 34.2342 24.951C33.4683 24.8113 32.4689 24.7745 31.1876 24.7686ZM15.5787 14.7673L15.5786 14.7676C14.9584 15.5377 14.0705 16.0226 12.8941 16.3141C11.7108 16.6073 10.2673 16.697 8.57513 16.697C6.88297 16.697 5.43945 16.6073 4.25611 16.3141C3.07976 16.0226 2.19187 15.5377 1.5717 14.7676L1.57151 14.7673C1.03024 14.0961 0.746302 13.2895 0.600999 12.2775C0.469421 11.361 0.455027 10.3072 0.453457 9.06397L1.52836 9.02814L1.51326 8.12186H0.454186C0.459736 6.86716 0.49336 5.78744 0.633519 4.86003C0.789699 3.8266 1.07311 3.02139 1.56502 2.39637C2.54013 1.1574 4.48043 0.453265 8.57513 0.453265C12.6698 0.453265 14.6101 1.1574 15.5852 2.39637C16.0771 3.02139 16.3606 3.8266 16.5167 4.86003C16.6735 5.8973 16.697 7.12508 16.697 8.57513C16.697 10.0359 16.696 11.2417 16.5492 12.2708C16.4038 13.2895 16.1198 14.0963 15.5787 14.7673ZM37.7732 14.7673L37.773 14.7676C37.1528 15.5377 36.2649 16.0226 35.0886 16.3141C33.9053 16.6073 32.4617 16.697 30.7696 16.697C29.0774 16.697 27.6339 16.6073 26.4506 16.3141C25.2742 16.0226 24.3863 15.5377 23.7661 14.7676L23.766 14.7673C23.2247 14.0961 22.9407 13.2895 22.7954 12.2775C22.6639 11.361 22.6495 10.3072 22.6479 9.06397L23.7228 9.02814L23.7077 8.12186H22.6486C22.6542 6.86716 22.6878 5.78744 22.828 4.86003C22.9841 3.8266 23.2676 3.02139 23.7595 2.39637C24.7346 1.1574 26.6749 0.453265 30.7696 0.453265C34.8643 0.453265 36.8046 1.1574 37.7797 2.39637C38.2716 3.02139 38.555 3.8266 38.7112 4.86003C38.8679 5.8973 38.8914 7.12508 38.8914 8.57513C38.8914 10.0359 38.8905 11.2417 38.7436 12.2708C38.5983 13.2895 38.3143 14.0963 37.7732 14.7673ZM8.99319 2.57415L8.99207 2.57415L8.57611 2.57325H8.57513C7.26143 2.57325 6.22853 2.5963 5.42819 2.70547C4.6305 2.81427 3.99508 3.0164 3.53115 3.42898C3.05817 3.84961 2.83043 4.42807 2.71261 5.13469C2.59605 5.83374 2.57744 6.72267 2.574 7.82122L2.574 7.82286L2.57484 9.5442L2.57485 9.54644C2.57963 10.4246 2.59853 11.2059 2.6788 11.8458C2.7572 12.4709 2.9022 13.0428 3.21967 13.4388L3.22073 13.4401C3.5946 13.9029 4.26502 14.1694 5.1089 14.3327C5.97445 14.5002 7.12464 14.577 8.57513 14.577C10.0257 14.577 11.176 14.4997 12.0416 14.3316C12.8856 14.1678 13.5558 13.9007 13.9295 13.4381L13.9302 13.4373C14.2969 12.9813 14.4384 12.2818 14.5069 11.5119C14.577 10.7239 14.577 9.74506 14.577 8.64226V8.62355V8.59732C14.577 7.35811 14.577 6.35975 14.4943 5.57669C14.4112 4.79036 14.2385 4.1395 13.8295 3.65151C13.4122 3.15358 12.8111 2.89721 12.0397 2.75652C11.2739 2.61684 10.2745 2.58008 8.99319 2.57415ZM31.1876 2.57415L31.1865 2.57415L30.7706 2.57325H30.7696C29.4559 2.57325 28.423 2.5963 27.6226 2.70547C26.8249 2.81427 26.1895 3.0164 25.7256 3.42898C25.2526 3.84961 25.0249 4.42807 24.9071 5.13469C24.7905 5.83374 24.7719 6.72267 24.7684 7.82122V7.82286L24.7693 9.5442L24.7693 9.54644C24.7741 10.4246 24.793 11.2059 24.8732 11.8458C24.9516 12.4709 25.0966 13.0428 25.4141 13.4388L25.4152 13.4401C25.789 13.9029 26.4595 14.1694 27.3033 14.3327C28.1689 14.5002 29.3191 14.577 30.7696 14.577C32.2202 14.577 33.3704 14.4997 34.2361 14.3316C35.0801 14.1678 35.7502 13.9007 36.124 13.4381L36.1246 13.4373C36.4913 12.9813 36.6328 12.2818 36.7013 11.5119C36.7715 10.7239 36.7715 9.74506 36.7715 8.64226V8.62355V8.59728C36.7715 7.35809 36.7715 6.35974 36.6887 5.57669C36.6057 4.79036 36.433 4.1395 36.024 3.65151C35.6067 3.15358 35.0056 2.89721 34.2342 2.75652C33.4683 2.61684 32.4689 2.58008 31.1876 2.57415Z" fill="#FBFAFC" stroke="#FBFAFC" stroke-width="0.906531"/>
</svg>
