<svg width="377" height="287" viewBox="0 0 377 287" fill="none" xmlns="http://www.w3.org/2000/svg">
<g clip-path="url(#clip0_16_1140)">
<path d="M348.813 260.867C336.461 270.292 321.412 279.839 306.616 284.34C302.351 285.676 297.95 286.529 293.495 286.883C289.33 287.219 285.138 286.893 281.075 285.918C270.397 283.257 260.493 278.597 250.91 273.152C247.778 271.371 244.684 269.508 241.607 267.604C236.585 264.494 231.612 261.275 226.626 258.134C225.879 257.658 225.137 257.191 224.391 256.729H224.386C223.183 255.971 221.976 255.225 220.767 254.489C220.554 254.358 220.341 254.231 220.124 254.099C217.839 252.712 215.515 251.357 213.152 250.033C212.862 249.874 212.572 249.711 212.283 249.553C207.71 247.011 203.011 244.707 198.202 242.648C195.044 241.316 191.845 240.114 188.615 239.09H188.61C187.375 238.7 186.135 238.333 184.891 237.997C181.16 236.972 177.358 236.226 173.516 235.767C168.222 235.125 162.868 235.168 157.585 235.894C157.228 235.944 156.875 235.994 156.517 236.053C142.219 238.346 129.171 246.08 114.809 247.902C114.343 247.961 113.882 248.016 113.416 248.057C113.217 248.075 113.018 248.097 112.819 248.111C108.645 248.469 104.445 248.365 100.294 247.803C88.6979 246.27 77.4045 241.515 67.2377 235.522C43.47 221.51 24.1952 199.973 12.4765 175.032C10.4641 170.757 8.67745 166.38 7.12388 161.917C2.78022 149.543 0.388156 136.566 0.0338047 123.453C-1.06567 77.9582 24.7381 32.3136 65.2514 11.7375C105.769 -8.83858 159.069 -2.03428 191.746 29.5756C211.568 48.7509 223.038 74.7351 237.956 97.9495C252.873 121.159 274.075 143.331 301.422 146.713C315.353 148.435 329.932 145.104 343.284 149.437C350.677 151.84 356.984 156.437 362.065 162.293C365.482 166.268 368.34 170.691 370.563 175.44C372.191 178.873 373.513 182.444 374.513 186.111C374.698 186.786 374.87 187.462 375.037 188.137C381.689 215.354 371.06 243.886 348.813 260.867Z" fill="#F2F2F2"/>
<path d="M126.311 211.596H83.7797C77.4076 211.596 72.2419 216.771 72.2419 223.156V223.156C72.2419 229.54 77.4076 234.715 83.7797 234.715H126.311C132.683 234.715 137.849 229.54 137.849 223.156C137.849 216.771 132.683 211.596 126.311 211.596Z" fill="#3F3D56"/>
<path d="M113.416 228.822V248.056C109.047 248.48 104.644 248.395 100.294 247.803V228.822H113.416Z" fill="#3F3D56"/>
<path d="M157.585 235.894C157.228 235.944 156.875 235.994 156.517 236.053C142.219 238.346 129.171 246.08 114.809 247.902C114.343 247.961 113.882 248.016 113.416 248.056C113.217 248.075 113.018 248.097 112.819 248.111C109.312 244.67 105.805 241.007 102.512 237.213C100.724 235.16 98.9959 233.065 97.3716 230.944C93.1546 225.468 89.5802 219.837 87.2184 214.307C87.4582 211.655 85.8112 205.522 85.0239 200.825L85.0194 200.821C84.6846 198.849 84.5036 197.135 84.671 196.034C85.6303 189.678 90.8109 190.408 92.4036 184.179C93.8403 182.985 95.3699 181.907 96.9779 180.956C97.2449 180.798 97.5164 180.639 97.7969 180.48L115.081 168.513L121.687 175.004L131.74 184.887L142.636 195.59L133.387 204.951C133.387 204.951 141.115 213.876 150.151 225.776C152.576 228.972 155.097 232.385 157.585 235.894Z" fill="#2F2E41"/>
<path d="M306.616 228.822V284.34C302.351 285.676 297.95 286.529 293.495 286.883V228.822H306.616Z" fill="#3F3D56"/>
<path d="M323.584 224.289H281.052C274.68 224.289 269.515 229.464 269.515 235.849V235.849C269.515 242.233 274.68 247.408 281.052 247.408H323.584C329.956 247.408 335.121 242.233 335.121 235.849C335.121 229.464 329.956 224.289 323.584 224.289Z" fill="#3F3D56"/>
<path d="M220.124 254.099C217.839 252.712 215.515 251.357 213.152 250.033C212.862 249.874 212.573 249.711 212.283 249.552L213.839 248.886L218.038 247.077L218.079 247.059L218.124 247.213L220.124 254.099Z" fill="#FFB6B6"/>
<path d="M226.626 258.134C225.879 257.658 225.137 257.191 224.391 256.728H224.386C223.183 255.971 221.976 255.225 220.767 254.489C220.554 254.358 220.341 254.231 220.124 254.099C217.839 252.712 215.515 251.357 213.152 250.033C212.862 249.874 212.573 249.711 212.283 249.552C207.71 247.011 203.011 244.707 198.202 242.648C195.044 241.316 191.845 240.114 188.615 239.09H188.61L186.072 234.833L174.647 215.662L172.136 211.451C172.136 211.451 163.571 213.99 151.45 216.424C147.038 217.312 142.161 218.183 137.043 218.917C131.573 219.697 125.836 220.318 120.135 220.617C117.416 220.762 114.705 220.835 112.036 220.812C105.136 220.767 98.5073 220.118 92.7022 218.577C90.7657 216.755 84.9289 214.275 80.7482 212.004H80.7437C78.9881 211.052 77.5312 210.141 76.7666 209.33C72.3596 204.66 76.1241 201.02 72.2057 195.925C72.153 194.056 72.2483 192.185 72.4908 190.331C72.5315 190.023 72.5722 189.71 72.622 189.393L73.8572 168.377L83.0331 167.162L96.9961 165.312L112.122 163.309L113.787 176.373C113.787 176.373 125.564 175.775 140.487 175.974C164.453 176.301 196.524 178.694 200.867 188.967C201.275 189.932 201.682 190.907 202.089 191.881C203.057 194.211 204.017 196.554 204.967 198.908C208.41 207.43 211.695 216.034 214.695 224.167C216.559 229.226 218.314 234.103 219.93 238.668C221.228 242.34 222.432 245.813 223.531 249.008C224.536 251.928 225.445 254.616 226.255 257.028C226.382 257.404 226.504 257.776 226.626 258.134Z" fill="#2F2E41"/>
<path d="M142.217 130.802L113.234 106.141L132.091 87.0219L145.246 108.61L194.009 118.296C195.476 117.191 197.231 116.536 199.062 116.413C200.893 116.29 202.72 116.703 204.321 117.603C205.922 118.502 207.227 119.848 208.077 121.478C208.927 123.107 209.285 124.949 209.108 126.779C208.932 128.609 208.227 130.348 207.081 131.784C205.935 133.22 204.396 134.291 202.653 134.866C200.91 135.441 199.038 135.495 197.264 135.022C195.491 134.55 193.893 133.57 192.666 132.203L142.217 130.802Z" fill="#A0616A"/>
<path d="M87.6205 73.7307C84.271 84.6478 116.171 110.685 116.171 110.685C116.525 108.064 134.611 130.664 135.841 128.618C139.339 122.801 143.187 108.422 147.224 106.584C149.533 105.533 136.288 90.9246 136.288 90.9246C136.288 90.9246 129.531 81.9689 120.61 70.6185C118.148 67.3628 114.903 64.7842 111.178 63.1228C107.453 61.4613 103.369 60.7712 99.3068 61.1164C99.3068 61.1164 90.9699 62.8137 87.6205 73.7307Z" fill="#3F3D56"/>
<path d="M101.724 49.5627C112.551 49.5627 121.327 40.7697 121.327 29.9231C121.327 19.0765 112.551 10.2836 101.724 10.2836C90.8984 10.2836 82.1221 19.0765 82.1221 29.9231C82.1221 40.7697 90.8984 49.5627 101.724 49.5627Z" fill="#A0616A"/>
<path d="M111.526 62.543C115.749 65.0584 118.275 69.68 119.725 74.383C122.41 83.09 124.026 92.0923 124.538 101.191L126.069 128.43L145.04 186.431C128.599 200.369 66.8006 189.599 66.8006 189.599C66.8006 189.599 64.9036 188.965 66.8006 187.065C68.6976 185.164 70.5443 186.848 68.6473 184.947C66.7504 183.047 68.0581 185.164 68.6904 183.263C69.3228 181.363 68.6904 182.63 68.0581 181.996C67.4257 181.363 72.9533 175.661 72.9533 175.661L67.8946 142.368L61.5713 75.2136C69.1593 65.7106 84.4199 60.1086 84.4199 60.1086L88.363 52.9976L108.079 54.5778L111.526 62.543Z" fill="#3F3D56"/>
<path d="M117.884 19.4889C119.407 20.6274 120.536 22.2159 121.111 24.0309C121.332 21.0648 121.346 18.087 121.153 15.1189C120.922 13.0333 119.456 12.5642 117.759 12.0206C116.227 11.5294 114.493 10.9747 114.027 8.94999C107.865 2.94424 97.1387 3.24709 89.7977 5.34198C85.7583 6.49477 83.434 7.97587 83.2261 8.84351L83.183 9.02211L83.0189 9.10429C79.9053 10.6641 79.2992 15.5896 79.3392 19.4468C79.4151 26.7141 81.9196 34.968 83.3305 35.6385C83.4052 35.674 83.424 35.6601 83.4564 35.6331C85.5808 33.9321 88.1727 35.7623 89.3117 36.7573C89.9836 32.2405 92.1467 28.0796 95.4558 24.9391C98.7648 21.7985 103.029 19.8596 107.567 19.4318C109.049 19.2883 110.519 19.0413 111.967 18.6926C112.701 18.5023 113.456 18.4031 114.214 18.3971C115.52 18.3773 116.8 18.7582 117.884 19.4889Z" fill="#2F2E41"/>
<path d="M93.1837 160.392L87.1873 157.315C86.866 157.086 86.6378 156.748 86.5443 156.364C86.4509 155.98 86.4984 155.575 86.6782 155.223C86.8581 154.872 87.1582 154.596 87.5238 154.448C87.8895 154.299 88.2962 154.288 88.6697 154.415L94.6661 157.492C94.9873 157.721 95.2155 158.059 95.309 158.443C95.4025 158.827 95.3549 159.231 95.1751 159.583C94.9953 159.935 94.6951 160.21 94.3295 160.359C93.9639 160.507 93.5572 160.519 93.1837 160.392Z" fill="#6C63FF"/>
<path d="M73.0026 152.148L63.1384 115.356L89.4982 110.357L88.0807 135.611L122.715 171.34C124.549 171.265 126.364 171.726 127.941 172.667C129.518 173.608 130.787 174.989 131.594 176.64C132.401 178.291 132.711 180.142 132.487 181.966C132.262 183.791 131.513 185.511 130.329 186.916C129.146 188.322 127.58 189.352 125.823 189.881C124.065 190.41 122.192 190.415 120.432 189.896C118.671 189.377 117.099 188.356 115.908 186.957C114.717 185.559 113.958 183.843 113.723 182.02L73.0026 152.148Z" fill="#A0616A"/>
<path d="M60.4412 74.1044C51.4938 81.1814 62.9779 120.767 62.9779 120.767C64.7559 118.812 66.8221 147.705 68.9954 146.721C75.1721 143.925 86.4932 134.283 90.8577 135.069C93.3536 135.519 90.7386 115.957 90.7386 115.957C90.7386 115.957 90.2577 104.742 89.3537 90.3232C89.1736 86.2422 87.9658 82.2731 85.8428 78.7855C83.7198 75.298 80.7506 72.4052 77.2116 70.3766C77.2116 70.3766 69.3887 67.0274 60.4412 74.1044Z" fill="#3F3D56"/>
<path d="M370.563 175.439L12.4764 175.031C10.464 170.757 8.67735 166.379 7.12378 161.917L362.065 162.293C365.481 166.268 368.34 170.691 370.563 175.439Z" fill="#3F3D56"/>
<path d="M256.511 270.555C254.66 271.452 252.793 272.318 250.91 273.152C247.778 271.371 244.684 269.507 241.607 267.604L253.018 262.581L256.511 270.555Z" fill="#FFB6B6"/>
<path d="M339.709 208.087C337.854 210.581 335.94 213.024 333.968 215.418C332.149 217.625 330.282 219.791 328.366 221.914C327.574 222.793 326.774 223.668 325.955 224.534C324.448 226.152 322.908 227.743 321.335 229.307C318.503 230.2 312.765 231.773 306.617 233.242C302.142 234.307 297.45 235.318 293.495 235.962C291.281 236.36 289.042 236.599 286.794 236.678C284.125 236.701 281.414 236.628 278.695 236.483C275.627 236.32 272.555 236.066 269.519 235.74C261.624 234.91 253.977 233.618 247.38 232.29C244.964 231.81 242.693 231.32 240.603 230.844C236.644 229.951 233.332 229.117 230.933 228.482C228.232 227.775 226.694 227.317 226.694 227.317L219.93 238.668L216.419 244.557L213.84 248.886L213.152 250.033C212.862 249.874 212.573 249.711 212.283 249.552C207.711 247.011 203.011 244.707 198.203 242.648C195.044 241.316 191.845 240.114 188.615 239.09H188.61C187.375 238.7 186.135 238.333 184.891 237.997C185.28 236.95 185.674 235.895 186.072 234.833C186.814 232.852 187.571 230.853 188.343 228.836C190.013 224.466 191.741 220.032 193.52 215.622C194.976 212 196.461 208.391 197.963 204.833C198.655 203.192 200.062 201.75 202.03 200.485C202.971 199.891 203.952 199.364 204.967 198.908C210.6 196.337 218.898 194.665 228.042 193.59C228.798 193.504 229.558 193.418 230.323 193.336C237.892 192.539 245.924 192.126 253.434 191.936C257.194 191.84 260.823 191.804 264.198 191.8C265.289 191.8 266.349 191.803 267.379 191.809H267.384C270.166 191.822 272.727 191.863 274.981 191.908C275.419 191.918 275.845 191.931 276.261 191.94H276.266C276.546 191.945 276.822 191.954 277.094 191.958C282.021 192.085 285.043 192.239 285.043 192.239L286.215 183.028L286.455 181.169L286.681 179.401V179.397L286.708 179.175L286.894 179.17L290.152 179.107L317.534 178.572L332.493 178.277L330.122 188.459L326.208 205.259C326.606 207.915 339.845 205.834 339.709 208.087Z" fill="#2F2E41"/>
<path d="M259.886 268.877C258.769 269.449 257.642 270.011 256.511 270.555C254.661 271.452 252.793 272.318 250.91 273.152C247.779 271.371 244.684 269.507 241.607 267.604C236.585 264.494 231.612 261.275 226.626 258.134C225.88 257.658 225.137 257.191 224.391 256.728H224.386C222.332 253.673 220.237 250.491 218.124 247.213C218.093 247.168 218.066 247.123 218.038 247.077C217.495 246.243 216.956 245.403 216.419 244.557C213.039 239.253 209.641 233.723 206.342 228.074L214.695 224.167L230.223 216.904L232.902 215.653L240.603 230.844L247.471 244.394L249 247.408L259.886 268.877Z" fill="#2F2E41"/>
<path d="M262.227 195.947L301.817 157.694L312.791 126.565L296.605 119.513C288.291 127.492 279.304 152.344 279.304 152.344L252.06 187.071C251.848 187.143 251.636 187.221 251.427 187.313C250.2 187.855 249.133 188.705 248.33 189.781C247.527 190.857 247.014 192.123 246.841 193.455C246.669 194.787 246.842 196.142 247.345 197.388C247.847 198.633 248.662 199.728 249.71 200.566C250.759 201.404 252.005 201.957 253.329 202.172C254.653 202.386 256.009 202.255 257.268 201.79C258.526 201.326 259.644 200.544 260.512 199.52C261.381 198.496 261.972 197.266 262.227 195.947Z" fill="#FFB8B8"/>
<path d="M292.05 122.989L312.581 129.519L312.658 129.506C320.3 128.224 326.641 115.719 330.614 105.456C331.921 102.07 331.897 98.3138 330.546 94.9457C329.194 91.5776 326.617 88.8491 323.335 87.3119C320.906 86.1943 318.214 85.7797 315.562 86.1149C312.91 86.4501 310.405 87.5217 308.329 89.2088L297.787 97.8396L292.05 122.989Z" fill="#6C63FF"/>
<path d="M339.627 208.547L339.747 208.387C346.153 199.875 337.392 178.797 336.067 175.74L342.023 173.973L340.985 162.611L340.485 157.545L345.116 153.138L345.132 153.026L348.316 130.318L352.483 115.289C354.054 109.607 354.087 103.609 352.58 97.9104C351.072 92.2116 348.078 87.0174 343.904 82.861L335.386 74.3872L325.18 58.3822L308.068 57.9396L301.915 68.8912C296.193 70.0613 291.061 73.2056 287.415 77.7763C283.768 82.347 281.838 88.0546 281.96 93.9046L282.539 123.06L276.399 159.184L276.227 165.745L270.201 172.117L271.315 178.558L266.807 180.357L264.601 189.51C263.759 190.566 258.196 197.611 258.145 199.575C258.138 199.87 258.348 200.161 258.806 200.489C262.406 203.07 282.531 208.663 291.589 205.3C301.237 201.722 339.05 208.443 339.431 208.511L339.627 208.547Z" fill="#6C63FF"/>
<path d="M315.129 53.0332C327.65 53.0332 337.799 42.8643 337.799 30.3204C337.799 17.7764 327.65 7.60754 315.129 7.60754C302.609 7.60754 292.459 17.7764 292.459 30.3204C292.459 42.8643 302.609 53.0332 315.129 53.0332Z" fill="#FFB8B8"/>
<path d="M312.364 53.3371C315.874 53.392 319.383 53.1463 322.852 52.6028C326.29 51.9022 333.982 46.2549 336.127 42.8565C337.72 40.3316 338.738 36.3887 339.313 33.5259C340.086 29.7375 340.056 25.8285 339.226 22.0522C338.396 18.2759 336.783 14.7165 334.492 11.6043C333.612 10.3026 332.397 9.26345 330.975 8.59684C330.849 8.54748 330.72 8.50374 330.589 8.46635C328.517 7.92033 326.656 6.76654 325.244 5.1531C324.97 4.82676 324.674 4.5206 324.356 4.237C322.76 2.88765 320.868 1.93585 318.835 1.4594C315.552 0.579325 310.802 1.45292 304.717 4.05842C301.66 5.36748 298.316 4.89373 295.744 4.3347C295.599 4.30678 295.45 4.31719 295.311 4.36491C295.172 4.41263 295.048 4.49599 294.951 4.60669C293.857 5.63604 292.414 6.21223 290.913 6.21944C289.994 6.25989 289.029 7.53532 287.863 9.19853C287.599 9.57607 287.29 10.0167 287.067 10.2847L287.037 9.76981L286.517 10.3442C285.7 11.247 285.124 12.3424 284.842 13.5283C284.561 14.7143 284.584 15.9522 284.909 17.1269C285.234 18.3016 285.85 19.3748 286.701 20.2466C287.551 21.1184 288.608 21.7604 289.772 22.1128C290.697 22.3594 291.645 22.5107 292.6 22.5643C293.179 22.6165 293.778 22.6705 294.351 22.7702C296.193 23.148 297.905 23.9977 299.321 25.2364C300.737 26.475 301.807 28.0603 302.429 29.8375C302.576 30.2483 302.815 30.6197 303.128 30.9232C303.441 31.2266 303.82 31.4539 304.235 31.5875C304.649 31.7212 305.089 31.7576 305.52 31.6939C305.951 31.6302 306.361 31.4681 306.72 31.2203C307.317 30.754 308.019 30.4395 308.764 30.3035C309.509 30.1675 310.276 30.2142 311 30.4395C311.625 30.7877 312.111 31.3407 312.378 32.0057C312.702 32.7465 313.238 33.374 313.92 33.8079C316.25 35.0115 316.41 40.3434 315.573 44.7882C314.767 49.0727 313.172 52.172 311.696 52.3253C310.559 52.4431 310.429 52.524 310.347 52.7253L310.273 52.9056L310.401 53.0743C311.029 53.3023 311.698 53.3919 312.364 53.3371Z" fill="#2F2E41"/>
<path d="M297.68 116.122L288.939 98.6621C276.251 99.5304 251.07 114.228 251.07 114.228L203.427 124.348C202.015 123.805 200.486 123.643 198.992 123.88C197.499 124.117 196.094 124.744 194.919 125.698C193.745 126.652 192.841 127.899 192.3 129.313C191.76 130.728 191.6 132.261 191.838 133.757C192.077 135.253 192.704 136.659 193.657 137.835C194.611 139.011 195.857 139.915 197.269 140.455C198.682 140.995 200.212 141.153 201.705 140.912C203.198 140.672 204.601 140.041 205.773 139.085L266.379 134.732L297.68 116.122Z" fill="#FFB8B8"/>
<path d="M294.154 118.989L316.983 101.992L321.004 87.4733C321.783 84.6202 321.75 81.6057 320.909 78.7704C320.067 75.9351 318.451 73.392 316.243 71.4285C313.232 68.7871 309.332 67.3898 305.332 67.5191C301.332 67.6484 297.53 69.2947 294.695 72.1251C286.105 80.716 276.307 92.7011 278.411 101.012L278.433 101.096L294.154 118.989Z" fill="#6C63FF"/>
<path d="M265.895 164.451H204.813V172.611H265.895V164.451Z" fill="white"/>
<path d="M109.796 164.451H48.7141V172.611H109.796V164.451Z" fill="white"/>
<path d="M116.929 125.211V164.062C116.929 164.557 117.126 165.032 117.475 165.382C117.824 165.732 118.298 165.929 118.792 165.929H176.257C176.751 165.929 177.225 165.732 177.574 165.382C177.924 165.032 178.12 164.557 178.121 164.062V125.211C178.119 124.716 177.923 124.242 177.573 123.893C177.224 123.543 176.751 123.346 176.257 123.346H118.792C118.299 123.346 117.825 123.543 117.476 123.893C117.127 124.242 116.93 124.716 116.929 125.211Z" fill="#3F3D56"/>
<path d="M118.277 125.694V163.583C118.277 163.847 118.382 164.101 118.569 164.288C118.756 164.475 119.009 164.58 119.273 164.581H175.779C176.043 164.58 176.296 164.475 176.482 164.288C176.669 164.101 176.774 163.847 176.775 163.583V125.694C176.775 125.43 176.67 125.176 176.483 124.988C176.296 124.801 176.043 124.695 175.779 124.694H119.273C119.009 124.695 118.755 124.801 118.568 124.988C118.382 125.176 118.277 125.43 118.277 125.694Z" fill="#6C63FF"/>
<path d="M115.727 171.639C115.832 171.771 115.966 171.878 116.118 171.951C116.271 172.024 116.438 172.061 116.606 172.061H178.137C178.306 172.06 178.472 172.023 178.624 171.95C178.775 171.877 178.909 171.772 179.015 171.641C179.121 171.51 179.197 171.357 179.236 171.193C179.276 171.029 179.279 170.859 179.244 170.694L178.289 166.148C178.249 165.963 178.164 165.79 178.041 165.646C177.918 165.502 177.761 165.392 177.584 165.324C177.456 165.274 177.32 165.248 177.182 165.248H117.558C117.42 165.248 117.284 165.274 117.156 165.324C116.979 165.392 116.822 165.502 116.699 165.646C116.576 165.79 116.491 165.963 116.451 166.148L115.496 170.694C115.462 170.858 115.465 171.029 115.505 171.192C115.545 171.356 115.621 171.509 115.727 171.639Z" fill="#2F2E41"/>
<path d="M175.071 167.206H176.524C176.646 167.206 176.745 167.107 176.745 166.985V166.288C176.745 166.166 176.646 166.067 176.524 166.067H175.071C174.949 166.067 174.85 166.166 174.85 166.288V166.985C174.85 167.107 174.949 167.206 175.071 167.206Z" fill="#3F3D56"/>
<path d="M171.281 167.206H172.734C172.856 167.206 172.955 167.107 172.955 166.985V166.288C172.955 166.166 172.856 166.067 172.734 166.067H171.281C171.159 166.067 171.06 166.166 171.06 166.288V166.985C171.06 167.107 171.159 167.206 171.281 167.206Z" fill="#3F3D56"/>
<path d="M167.49 167.206H168.944C169.066 167.206 169.165 167.107 169.165 166.985V166.288C169.165 166.166 169.066 166.067 168.944 166.067H167.49C167.368 166.067 167.269 166.166 167.269 166.288V166.985C167.269 167.107 167.368 167.206 167.49 167.206Z" fill="#3F3D56"/>
<path d="M163.7 167.206H165.153C165.275 167.206 165.374 167.107 165.374 166.985V166.288C165.374 166.166 165.275 166.067 165.153 166.067H163.7C163.578 166.067 163.479 166.166 163.479 166.288V166.985C163.479 167.107 163.578 167.206 163.7 167.206Z" fill="#3F3D56"/>
<path d="M159.91 167.206H161.363C161.485 167.206 161.584 167.107 161.584 166.985V166.288C161.584 166.166 161.485 166.067 161.363 166.067H159.91C159.788 166.067 159.689 166.166 159.689 166.288V166.985C159.689 167.107 159.788 167.206 159.91 167.206Z" fill="#3F3D56"/>
<path d="M156.12 167.206H157.573C157.695 167.206 157.794 167.107 157.794 166.985V166.288C157.794 166.166 157.695 166.067 157.573 166.067H156.12C155.998 166.067 155.899 166.166 155.899 166.288V166.985C155.899 167.107 155.998 167.206 156.12 167.206Z" fill="#3F3D56"/>
<path d="M152.329 167.206H153.783C153.905 167.206 154.004 167.107 154.004 166.985V166.288C154.004 166.166 153.905 166.067 153.783 166.067H152.329C152.207 166.067 152.109 166.166 152.109 166.288V166.985C152.109 167.107 152.207 167.206 152.329 167.206Z" fill="#3F3D56"/>
<path d="M148.539 167.206H149.992C150.114 167.206 150.213 167.107 150.213 166.985V166.288C150.213 166.166 150.114 166.067 149.992 166.067H148.539C148.417 166.067 148.318 166.166 148.318 166.288V166.985C148.318 167.107 148.417 167.206 148.539 167.206Z" fill="#3F3D56"/>
<path d="M144.749 167.206H146.202C146.324 167.206 146.423 167.107 146.423 166.985V166.288C146.423 166.166 146.324 166.067 146.202 166.067H144.749C144.627 166.067 144.528 166.166 144.528 166.288V166.985C144.528 167.107 144.627 167.206 144.749 167.206Z" fill="#3F3D56"/>
<path d="M140.959 167.206H142.412C142.534 167.206 142.633 167.107 142.633 166.985V166.288C142.633 166.166 142.534 166.067 142.412 166.067H140.959C140.837 166.067 140.738 166.166 140.738 166.288V166.985C140.738 167.107 140.837 167.206 140.959 167.206Z" fill="#3F3D56"/>
<path d="M137.168 167.206H138.622C138.744 167.206 138.843 167.107 138.843 166.985V166.288C138.843 166.166 138.744 166.067 138.622 166.067H137.168C137.046 166.067 136.947 166.166 136.947 166.288V166.985C136.947 167.107 137.046 167.206 137.168 167.206Z" fill="#3F3D56"/>
<path d="M133.378 167.206H134.831C134.953 167.206 135.052 167.107 135.052 166.985V166.288C135.052 166.166 134.953 166.067 134.831 166.067H133.378C133.256 166.067 133.157 166.166 133.157 166.288V166.985C133.157 167.107 133.256 167.206 133.378 167.206Z" fill="#3F3D56"/>
<path d="M129.588 167.206H131.041C131.163 167.206 131.262 167.107 131.262 166.985V166.288C131.262 166.166 131.163 166.067 131.041 166.067H129.588C129.466 166.067 129.367 166.166 129.367 166.288V166.985C129.367 167.107 129.466 167.206 129.588 167.206Z" fill="#3F3D56"/>
<path d="M125.797 167.206H127.251C127.373 167.206 127.472 167.107 127.472 166.985V166.288C127.472 166.166 127.373 166.067 127.251 166.067H125.797C125.675 166.067 125.577 166.166 125.577 166.288V166.985C125.577 167.107 125.675 167.206 125.797 167.206Z" fill="#3F3D56"/>
<path d="M122.007 167.206H123.461C123.583 167.206 123.682 167.107 123.682 166.985V166.288C123.682 166.166 123.583 166.067 123.461 166.067H122.007C121.885 166.067 121.787 166.166 121.787 166.288V166.985C121.787 167.107 121.885 167.206 122.007 167.206Z" fill="#3F3D56"/>
<path d="M118.217 167.206H119.67C119.792 167.206 119.891 167.107 119.891 166.985V166.288C119.891 166.166 119.792 166.067 119.67 166.067H118.217C118.095 166.067 117.996 166.166 117.996 166.288V166.985C117.996 167.107 118.095 167.206 118.217 167.206Z" fill="#3F3D56"/>
<path d="M175.116 169.105H176.569C176.691 169.105 176.79 169.006 176.79 168.883V168.187C176.79 168.065 176.691 167.966 176.569 167.966H175.116C174.994 167.966 174.895 168.065 174.895 168.187V168.883C174.895 169.006 174.994 169.105 175.116 169.105Z" fill="#3F3D56"/>
<path d="M171.325 169.105H172.779C172.901 169.105 173 169.006 173 168.883V168.187C173 168.065 172.901 167.966 172.779 167.966H171.325C171.203 167.966 171.104 168.065 171.104 168.187V168.883C171.104 169.006 171.203 169.105 171.325 169.105Z" fill="#3F3D56"/>
<path d="M167.535 169.105H168.989C169.111 169.105 169.209 169.006 169.209 168.883V168.187C169.209 168.065 169.111 167.966 168.989 167.966H167.535C167.413 167.966 167.314 168.065 167.314 168.187V168.883C167.314 169.006 167.413 169.105 167.535 169.105Z" fill="#3F3D56"/>
<path d="M163.745 169.105H165.198C165.32 169.105 165.419 169.006 165.419 168.883V168.187C165.419 168.065 165.32 167.966 165.198 167.966H163.745C163.623 167.966 163.524 168.065 163.524 168.187V168.883C163.524 169.006 163.623 169.105 163.745 169.105Z" fill="#3F3D56"/>
<path d="M159.955 169.105H161.408C161.53 169.105 161.629 169.006 161.629 168.883V168.187C161.629 168.065 161.53 167.966 161.408 167.966H159.955C159.833 167.966 159.734 168.065 159.734 168.187V168.883C159.734 169.006 159.833 169.105 159.955 169.105Z" fill="#3F3D56"/>
<path d="M156.164 169.105H157.618C157.74 169.105 157.839 169.006 157.839 168.883V168.187C157.839 168.065 157.74 167.966 157.618 167.966H156.164C156.042 167.966 155.944 168.065 155.944 168.187V168.883C155.944 169.006 156.042 169.105 156.164 169.105Z" fill="#3F3D56"/>
<path d="M152.374 169.105H153.827C153.949 169.105 154.048 169.006 154.048 168.883V168.187C154.048 168.065 153.949 167.966 153.827 167.966H152.374C152.252 167.966 152.153 168.065 152.153 168.187V168.883C152.153 169.006 152.252 169.105 152.374 169.105Z" fill="#3F3D56"/>
<path d="M148.584 169.105H150.037C150.159 169.105 150.258 169.006 150.258 168.883V168.187C150.258 168.065 150.159 167.966 150.037 167.966H148.584C148.462 167.966 148.363 168.065 148.363 168.187V168.883C148.363 169.006 148.462 169.105 148.584 169.105Z" fill="#3F3D56"/>
<path d="M144.794 169.105H146.247C146.369 169.105 146.468 169.006 146.468 168.883V168.187C146.468 168.065 146.369 167.966 146.247 167.966H144.794C144.672 167.966 144.573 168.065 144.573 168.187V168.883C144.573 169.006 144.672 169.105 144.794 169.105Z" fill="#3F3D56"/>
<path d="M141.003 169.105H142.457C142.579 169.105 142.677 169.006 142.677 168.883V168.187C142.677 168.065 142.579 167.966 142.457 167.966H141.003C140.881 167.966 140.782 168.065 140.782 168.187V168.883C140.782 169.006 140.881 169.105 141.003 169.105Z" fill="#3F3D56"/>
<path d="M137.213 169.105H138.667C138.789 169.105 138.887 169.006 138.887 168.883V168.187C138.887 168.065 138.789 167.966 138.667 167.966H137.213C137.091 167.966 136.992 168.065 136.992 168.187V168.883C136.992 169.006 137.091 169.105 137.213 169.105Z" fill="#3F3D56"/>
<path d="M133.423 169.105H134.876C134.998 169.105 135.097 169.006 135.097 168.883V168.187C135.097 168.065 134.998 167.966 134.876 167.966H133.423C133.301 167.966 133.202 168.065 133.202 168.187V168.883C133.202 169.006 133.301 169.105 133.423 169.105Z" fill="#3F3D56"/>
<path d="M129.633 169.105H131.086C131.208 169.105 131.307 169.006 131.307 168.883V168.187C131.307 168.065 131.208 167.966 131.086 167.966H129.633C129.511 167.966 129.412 168.065 129.412 168.187V168.883C129.412 169.006 129.511 169.105 129.633 169.105Z" fill="#3F3D56"/>
<path d="M125.842 169.105H127.296C127.418 169.105 127.517 169.006 127.517 168.883V168.187C127.517 168.065 127.418 167.966 127.296 167.966H125.842C125.72 167.966 125.621 168.065 125.621 168.187V168.883C125.621 169.006 125.72 169.105 125.842 169.105Z" fill="#3F3D56"/>
<path d="M122.052 169.105H123.505C123.627 169.105 123.726 169.006 123.726 168.883V168.187C123.726 168.065 123.627 167.966 123.505 167.966H122.052C121.93 167.966 121.831 168.065 121.831 168.187V168.883C121.831 169.006 121.93 169.105 122.052 169.105Z" fill="#3F3D56"/>
<path d="M118.262 169.105H119.715C119.837 169.105 119.936 169.006 119.936 168.883V168.187C119.936 168.065 119.837 167.966 119.715 167.966H118.262C118.14 167.966 118.041 168.065 118.041 168.187V168.883C118.041 169.006 118.14 169.105 118.262 169.105Z" fill="#3F3D56"/>
<path d="M143.657 171.383H158.376C158.498 171.383 158.597 171.284 158.597 171.162V170.465C158.597 170.343 158.498 170.244 158.376 170.244H143.657C143.535 170.244 143.436 170.343 143.436 170.465V171.162C143.436 171.284 143.535 171.383 143.657 171.383Z" fill="#3F3D56"/>
</g>
<defs>
<clipPath id="clip0_16_1140">
<rect width="377" height="287" fill="white"/>
</clipPath>
</defs>
</svg>
