<svg width="273" height="66" viewBox="0 0 273 66" fill="none" xmlns="http://www.w3.org/2000/svg">
<path d="M11.7072 26.9436C9.73191 26.1882 7.98306 25.2351 6.45837 24.0819C4.93367 22.9288 3.71485 21.5568 2.8019 19.9659C1.88895 18.375 1.43364 16.4947 1.43364 14.3249C1.43364 12.1551 1.90296 10.1453 2.84393 8.37561C3.78256 6.60588 5.0224 5.10209 6.5611 3.86892C8.09981 2.63341 9.84165 1.6803 11.789 1.00724C13.7363 0.336531 15.7303 0 17.7733 0C19.3517 0 20.9045 0.164735 22.4291 0.494206C23.9538 0.823676 25.3758 1.31082 26.6974 1.95564C28.0189 2.60046 29.2167 3.40296 30.2908 4.36313C31.3672 5.3233 32.2708 6.43644 33.0063 7.69784C33.3589 8.27442 33.4476 8.86511 33.2725 9.46757C33.095 10.0724 32.8172 10.5666 32.4342 10.9502C31.9976 11.362 31.4186 11.6091 30.6994 11.6915C29.9779 11.7739 29.2751 11.555 28.5956 11.0326C27.8064 10.1548 27.0243 9.40638 26.2467 8.7898C25.4715 8.17322 24.6473 7.67196 23.7764 7.286C22.9055 6.90241 21.9855 6.62 21.0189 6.44115C20.0522 6.26229 18.9968 6.17286 17.8527 6.17286C16.5989 6.17286 15.3684 6.35172 14.1566 6.70708C12.9447 7.06479 11.8543 7.57782 10.89 8.25088C9.92337 8.92394 9.13417 9.7688 8.52009 10.7831C7.90835 11.7997 7.60014 12.9647 7.60014 14.2825C7.60014 15.6828 7.96672 16.8501 8.70222 17.782C9.43771 18.7163 10.3834 19.4976 11.5415 20.1283C12.6996 20.759 13.9978 21.2814 15.4431 21.6933C16.8861 22.1051 18.3034 22.4746 19.6903 22.8041C21.6773 23.4089 23.6176 24.1008 25.5112 24.8821C27.4025 25.6634 29.086 26.6259 30.5546 27.7649C32.0256 28.904 33.2024 30.276 34.0874 31.881C34.9723 33.486 35.4159 35.4157 35.4159 37.6655C35.4159 40.026 34.9466 42.1863 34.0056 44.149C33.067 46.1117 31.7921 47.792 30.1857 49.1923C28.5793 50.5925 26.7067 51.6822 24.5703 52.4658C22.4315 53.2471 20.1643 53.6401 17.7687 53.6401C15.8073 53.6401 13.9161 53.3789 12.0925 52.8588C10.2689 52.3387 8.59247 51.6233 7.06778 50.7173C5.54308 49.8112 4.20284 48.7404 3.04473 47.5073C1.88661 46.2718 1.00869 44.9539 0.41095 43.556C-0.0513623 42.5417 -0.126079 41.6686 0.186799 40.9414C0.499677 40.2142 0.983003 39.673 1.63678 39.3152C2.42598 38.9316 3.14746 38.8634 3.80124 39.1105C4.45501 39.3576 5.13447 39.9342 5.84429 40.8402C6.38832 41.8569 7.08412 42.7747 7.92702 43.5984C8.76993 44.422 9.7179 45.121 10.7663 45.6976C11.8146 46.2741 12.9518 46.7142 14.1776 47.0154C15.4034 47.319 16.6829 47.4673 18.0162 47.4673C19.3494 47.4673 20.7317 47.2602 22.0812 46.8507C23.4285 46.4389 24.6403 45.8364 25.7167 45.0386C26.7931 44.2432 27.664 43.2548 28.3318 42.0757C28.9996 40.8967 29.3335 39.5223 29.3335 37.9597C29.3335 36.5053 28.9926 35.2839 28.3131 34.2955C27.6313 33.3071 26.7534 32.4787 25.6793 31.8057C24.603 31.1326 23.3771 30.5631 22.0042 30.0971C20.6289 29.6312 19.2467 29.1911 17.8574 28.7792C15.7326 28.3133 13.6849 27.7014 11.7096 26.9483L11.7072 26.9436Z" fill="#0CCA98"/>
<path d="M49.4277 50.0583C49.4277 50.9102 49.1288 51.6304 48.5288 52.2187C47.9287 52.8094 47.2072 53.1036 46.3643 53.1036C45.5214 53.1036 44.7976 52.8094 44.1998 52.2187C43.5998 51.628 43.3009 50.9079 43.3009 50.0583V3.45708C43.3009 2.57928 43.5998 1.85209 44.1998 1.27552C44.7976 0.698945 45.5191 0.411835 46.3643 0.411835C47.2095 0.411835 47.9287 0.698945 48.5288 1.27552C49.1265 1.85209 49.4277 2.57928 49.4277 3.45708V50.0583Z" fill="#0CCA98"/>
<path d="M64.252 34.8886C65.3144 37.3996 66.7644 39.5812 68.602 41.4333C70.4396 43.2854 72.59 44.7468 75.0557 45.8176C77.519 46.8884 80.1668 47.4226 82.999 47.4226C85.2592 47.4226 87.356 47.1213 89.2893 46.5165C91.2226 45.9141 92.9458 45.041 94.4564 43.902C95.9671 42.7629 97.2537 41.3909 98.316 39.7859C99.3784 38.1809 100.154 36.3618 100.644 34.3308H89.4107C88.5655 34.3308 87.851 34.0296 87.2673 33.4248C86.6812 32.8223 86.3893 32.0928 86.3893 31.2432C86.3893 30.3937 86.6812 29.6594 87.2673 29.0405C87.8533 28.4239 88.5678 28.1133 89.4107 28.1133L104.195 28.1956C105.066 28.1956 105.816 28.478 106.442 29.0405C107.067 29.6029 107.38 30.3372 107.38 31.2432C107.135 34.4532 106.346 37.4184 105.01 40.1342C103.675 42.8524 101.926 45.2128 99.7614 47.2155C97.5969 49.2182 95.0845 50.7832 92.2266 51.9081C89.3663 53.033 86.2913 53.5954 82.9967 53.5954C80.545 53.5954 78.1844 53.2801 75.9102 52.6494C73.636 52.0187 71.5183 51.1197 69.5593 49.9524C67.598 48.7852 65.8141 47.3943 64.2077 45.7729C62.6013 44.1538 61.226 42.3558 60.0819 40.379C58.9378 38.4021 58.0529 36.2771 57.4271 33.999C56.8013 31.721 56.4885 29.3464 56.4885 26.8777C56.4885 23.2277 57.1679 19.7753 58.5315 16.5253C59.8928 13.273 61.7584 10.4183 64.126 7.96143C66.4959 5.50452 69.2861 3.563 72.4989 2.13686C75.7118 0.710722 79.1838 -0.00469971 82.915 -0.00469971C86.6462 -0.00469971 89.9127 0.668362 93.1255 2.01213C96.3384 3.35825 99.2664 5.34684 101.907 7.98025C102.505 8.58507 102.806 9.30519 102.806 10.1406C102.806 10.9761 102.505 11.6844 101.907 12.261C101.307 12.8658 100.593 13.1812 99.7637 13.2071C98.9325 13.2353 98.204 12.9458 97.5782 12.3434C95.5352 10.2842 93.2493 8.75451 90.7159 7.75433C88.1825 6.7518 85.5955 6.25289 82.9547 6.25289C80.3139 6.25289 77.6031 6.78239 75.1537 7.8367C72.7021 8.89336 70.5516 10.3407 68.7 12.181C66.8485 14.019 65.3775 16.1958 64.2894 18.7069C63.199 21.2179 62.655 23.929 62.655 26.8377C62.655 29.7465 63.185 32.3752 64.2474 34.8862L64.252 34.8886Z" fill="#0CCA98"/>
<path d="M145 37.216H122.412L116.573 51.2538C116.246 52.0775 115.688 52.6329 114.899 52.92C114.109 53.2071 113.292 53.1742 112.447 52.8165C111.658 52.487 111.132 51.9316 110.876 51.1503C110.616 50.369 110.665 49.5665 111.018 48.7428L131.033 2.30629C131.549 1.04489 132.49 0.411835 133.851 0.411835C134.449 0.411835 135 0.57657 135.504 0.90604C136.009 1.23551 136.382 1.68736 136.627 2.26393L156.437 48.7828C156.789 49.5782 156.845 50.3619 156.6 51.1291C156.355 51.8987 155.837 52.4611 155.047 52.8165C154.258 53.2001 153.462 53.2354 152.659 52.92C151.856 52.6047 151.276 52.0493 150.924 51.2538L145 37.216ZM124.988 31.0408H142.427L133.688 10.2936L124.988 31.0408Z" fill="#0CCA98"/>
<path d="M173.748 42.6664C173.096 42.4123 172.503 42.0946 171.968 41.711C171.434 41.3274 170.997 40.8638 170.656 40.3201C170.315 39.7765 170.145 39.127 170.145 38.3692C170.145 37.6114 170.313 36.9313 170.649 36.3288C170.985 35.7264 171.422 35.2204 171.961 34.8109C172.501 34.4014 173.103 34.0884 173.771 33.8696C174.439 33.6507 175.102 33.5401 175.765 33.5401C176.921 33.5401 177.974 33.7754 178.924 34.2414C179.872 34.7097 180.61 35.3969 181.133 36.3029C181.212 36.4418 181.229 36.5853 181.184 36.7289C181.14 36.8725 181.072 36.9854 180.984 37.0654C180.874 37.1643 180.738 37.2231 180.575 37.2372C180.412 37.2513 180.246 37.1902 180.078 37.0513C179.494 36.2653 178.845 35.7193 178.128 35.4157C177.411 35.1121 176.629 34.9592 175.777 34.9592C175.312 34.9592 174.833 35.0298 174.338 35.1686C173.843 35.3075 173.393 35.5193 172.982 35.804C172.571 36.0888 172.232 36.4418 171.966 36.8654C171.7 37.289 171.56 37.7903 171.551 38.3668C171.551 38.7551 171.623 39.1011 171.765 39.4047C171.908 39.7083 172.102 39.9789 172.344 40.2119C172.587 40.4472 172.863 40.652 173.176 40.8332C173.489 41.0144 173.811 41.1673 174.147 41.2968C174.483 41.4262 174.817 41.5415 175.149 41.6404C175.48 41.7392 175.788 41.8286 176.076 41.9086C176.827 42.1581 177.556 42.4311 178.263 42.73C178.971 43.0289 179.599 43.3842 180.148 43.7984C180.696 44.2126 181.135 44.7044 181.467 45.2787C181.798 45.8505 181.964 46.5354 181.964 47.3331C181.964 48.1992 181.794 48.9852 181.453 49.6865C181.112 50.3878 180.654 50.9856 180.082 51.4798C179.508 51.974 178.849 52.3529 178.102 52.6164C177.355 52.88 176.582 53.0118 175.781 53.0118C175.1 53.0118 174.436 52.92 173.794 52.7365C173.152 52.5529 172.559 52.2987 172.015 51.974C171.471 51.6492 170.997 51.2656 170.591 50.8232C170.185 50.3807 169.874 49.903 169.657 49.397C169.547 49.157 169.533 48.957 169.613 48.7922C169.692 48.6275 169.811 48.5051 169.967 48.4251C170.294 48.2557 170.61 48.3757 170.915 48.7828C171.102 49.2017 171.368 49.5853 171.709 49.9336C172.05 50.2819 172.438 50.5784 172.874 50.8232C173.309 51.0679 173.78 51.2562 174.289 51.3903C174.798 51.5245 175.319 51.5927 175.854 51.5927C176.417 51.5927 176.979 51.5033 177.537 51.3244C178.095 51.1456 178.6 50.8797 179.05 50.5243C179.501 50.1713 179.863 49.7289 180.141 49.2017C180.416 48.6746 180.556 48.0603 180.556 47.3637C180.556 46.7566 180.416 46.2412 180.134 45.8176C179.851 45.394 179.482 45.0316 179.022 44.7256C178.562 44.422 178.042 44.1585 177.458 43.9325C176.874 43.7066 176.281 43.4925 175.679 43.283C175.046 43.123 174.404 42.9159 173.752 42.6617L173.748 42.6664Z" fill="#FBFAFC"/>
<path d="M184.238 43.0994C184.61 42.2287 185.116 41.4709 185.758 40.8285C186.401 40.186 187.152 39.6777 188.012 39.3035C188.871 38.9293 189.786 38.7434 190.755 38.7434C191.724 38.7434 192.651 38.9293 193.506 39.3035C194.36 39.6777 195.107 40.186 195.745 40.8285C196.382 41.4709 196.887 42.2287 197.258 43.0994C197.629 43.9725 197.814 44.8998 197.814 45.8858C197.814 46.8719 197.629 47.7826 197.258 48.651C196.887 49.5171 196.382 50.2725 195.745 50.915C195.107 51.5574 194.36 52.0658 193.506 52.4399C192.651 52.8141 191.734 53 190.755 53C189.777 53 188.873 52.8141 188.012 52.4399C187.152 52.0658 186.401 51.5574 185.758 50.915C185.116 50.2725 184.61 49.5171 184.238 48.651C183.867 47.785 183.683 46.8625 183.683 45.8858C183.683 44.9092 183.867 43.9702 184.238 43.0994ZM185.544 48.0839C185.836 48.771 186.235 49.3735 186.744 49.8912C187.253 50.409 187.851 50.8208 188.537 51.1244C189.223 51.428 189.964 51.581 190.753 51.581C191.542 51.581 192.296 51.428 192.985 51.1244C193.671 50.8208 194.267 50.409 194.771 49.8912C195.276 49.3735 195.673 48.771 195.964 48.0839C196.256 47.3967 196.401 46.6648 196.401 45.8882C196.401 45.1116 196.256 44.3585 195.964 43.6619C195.673 42.9653 195.273 42.3605 194.764 41.8451C194.255 41.3321 193.657 40.9249 192.971 40.6261C192.285 40.3272 191.544 40.1789 190.755 40.1789C189.966 40.1789 189.226 40.3272 188.539 40.6261C187.853 40.9249 187.255 41.3321 186.746 41.8451C186.237 42.3581 185.836 42.963 185.546 43.6619C185.254 44.3585 185.109 45.1022 185.109 45.8882C185.109 46.6742 185.254 47.3967 185.546 48.0839H185.544Z" fill="#FBFAFC"/>
<path d="M204.972 38.7575C205.171 38.7575 205.339 38.8257 205.477 38.9599C205.615 39.094 205.685 39.2611 205.685 39.4611C205.685 39.6706 205.615 39.8424 205.477 39.9765C205.339 40.1107 205.171 40.1789 204.972 40.1789H202.747V52.0304C202.747 52.2399 202.68 52.414 202.546 52.5529C202.413 52.6917 202.248 52.7623 202.049 52.7623C201.851 52.7623 201.683 52.6917 201.545 52.5529C201.407 52.414 201.337 52.2399 201.337 52.0304V40.1789H199.455C199.257 40.1789 199.088 40.1083 198.951 39.9695C198.813 39.8306 198.743 39.6612 198.743 39.4611C198.743 39.2611 198.811 39.094 198.951 38.9599C199.088 38.8257 199.257 38.7575 199.455 38.7575H201.337V37.682C201.346 37.0748 201.465 36.5124 201.692 35.9923C201.918 35.4746 202.224 35.0321 202.605 34.6626C202.985 34.2932 203.429 34.0061 203.938 33.7966C204.447 33.5872 204.998 33.4836 205.591 33.4836C205.799 33.4836 205.972 33.5424 206.11 33.6625C206.247 33.7825 206.317 33.9472 206.317 34.1567C206.317 34.3661 206.247 34.5238 206.11 34.6579C205.972 34.7921 205.799 34.8603 205.591 34.8603H205.533C205.138 34.8697 204.774 34.9521 204.442 35.1074C204.111 35.2628 203.821 35.4651 203.576 35.7193C203.329 35.9735 203.13 36.27 202.983 36.6089C202.836 36.9478 202.757 37.3055 202.745 37.6844V38.7598H204.97L204.972 38.7575Z" fill="#FBFAFC"/>
<path d="M210.579 38.7575H212.832C213.03 38.7575 213.198 38.8258 213.336 38.9599C213.474 39.0941 213.544 39.2611 213.544 39.4612C213.544 39.6706 213.474 39.8424 213.336 39.9766C213.198 40.1107 213.03 40.1789 212.832 40.1789H210.579V52.1199C210.579 52.3199 210.508 52.487 210.371 52.6212C210.233 52.7553 210.065 52.8236 209.866 52.8236C209.668 52.8236 209.502 52.7553 209.369 52.6212C209.236 52.487 209.168 52.3199 209.168 52.1199V40.1789H207.314C207.116 40.1789 206.948 40.1083 206.81 39.9695C206.672 39.8307 206.602 39.6612 206.602 39.4612C206.602 39.2611 206.672 39.0941 206.81 38.9599C206.948 38.8258 207.116 38.7575 207.314 38.7575H209.168V34.3944C209.168 34.1944 209.236 34.0273 209.369 33.8931C209.502 33.759 209.668 33.6907 209.866 33.6907C210.065 33.6907 210.233 33.759 210.371 33.8931C210.508 34.0273 210.579 34.1944 210.579 34.3944V38.7575Z" fill="#FBFAFC"/>
<path d="M223.834 43.1206L225.524 39.1905C225.604 39.0022 225.734 38.8681 225.917 38.7951C226.099 38.7198 226.281 38.7222 226.458 38.8022C226.645 38.8822 226.773 39.0117 226.844 39.1905C226.914 39.3694 226.902 39.56 226.813 39.7577L224.588 44.8692L227.005 50.489L231.854 39.1905C231.934 39.0022 232.064 38.8681 232.247 38.7951C232.429 38.7198 232.611 38.7222 232.788 38.8022C232.975 38.8822 233.103 39.0117 233.173 39.1905C233.244 39.3694 233.232 39.56 233.143 39.7577L227.672 52.3858L227.539 52.5953C227.49 52.6541 227.416 52.7106 227.318 52.76C227.219 52.8 227.149 52.8188 227.11 52.8188H226.916C226.858 52.8188 226.787 52.8 226.708 52.76C226.619 52.72 226.545 52.6659 226.486 52.5953C226.428 52.5364 226.384 52.4658 226.353 52.3858L223.848 46.6012L221.342 52.3858L221.209 52.5953C221.16 52.6541 221.086 52.7106 220.988 52.76C220.89 52.8 220.819 52.8188 220.78 52.8188H220.586C220.528 52.8188 220.458 52.8 220.378 52.76C220.289 52.72 220.215 52.6659 220.156 52.5953C220.098 52.5364 220.054 52.4658 220.023 52.3858L214.553 39.7577C214.464 39.5576 214.455 39.3694 214.522 39.1905C214.59 39.0117 214.716 38.8822 214.893 38.8022C215.08 38.7128 215.265 38.7057 215.442 38.7787C215.62 38.854 215.748 38.9905 215.827 39.1905L220.677 50.489L223.094 44.8692L220.885 39.7577C220.796 39.5576 220.787 39.3694 220.854 39.1905C220.925 39.0117 221.048 38.8822 221.226 38.8022C221.413 38.7128 221.597 38.7057 221.774 38.7787C221.952 38.854 222.08 38.9905 222.16 39.1905L223.836 43.1206H223.834Z" fill="#FBFAFC"/>
<path d="M233.47 45.8929C233.47 44.9068 233.654 43.9796 234.026 43.1089C234.397 42.2381 234.904 41.4803 235.546 40.8402C236.188 40.1978 236.94 39.6918 237.799 39.3176C238.658 38.9434 239.573 38.7575 240.542 38.7575C241.511 38.7575 242.422 38.9411 243.279 39.3105C244.134 39.6777 244.881 40.1813 245.518 40.8191C246.156 41.4568 246.66 42.2028 247.031 43.0595C247.402 43.9161 247.591 44.8362 247.603 45.8223V52.0775C247.603 52.287 247.533 52.4635 247.395 52.607C247.258 52.7506 247.085 52.8235 246.877 52.8235C246.669 52.8235 246.515 52.7506 246.389 52.607C246.261 52.4635 246.195 52.2846 246.195 52.0775L246.181 50.0607C245.854 50.4984 245.488 50.8985 245.077 51.2562C244.666 51.6139 244.222 51.9246 243.741 52.1834C243.263 52.4423 242.754 52.6447 242.214 52.7882C241.675 52.9318 241.119 53.0048 240.547 53.0048C239.578 53.0048 238.665 52.8188 237.804 52.4447C236.942 52.0705 236.192 51.5645 235.55 50.922C234.908 50.2796 234.402 49.5265 234.03 48.6604C233.659 47.7944 233.475 46.8742 233.475 45.8976L233.47 45.8929ZM234.878 45.8858C234.878 46.6624 235.023 47.3943 235.317 48.0815C235.609 48.7687 236.01 49.3712 236.519 49.8889C237.028 50.4066 237.628 50.8185 238.315 51.1221C239.004 51.4256 239.744 51.5786 240.535 51.5786C241.327 51.5786 242.081 51.4256 242.77 51.1221C243.459 50.8185 244.054 50.4066 244.558 49.8889C245.063 49.3712 245.462 48.7687 245.754 48.0815C246.046 47.3943 246.193 46.6624 246.193 45.8858C246.193 45.1092 246.046 44.3562 245.754 43.6596C245.462 42.963 245.06 42.3581 244.551 41.8428C244.042 41.3297 243.442 40.9226 242.756 40.6237C242.069 40.3248 241.329 40.1766 240.535 40.1766C239.742 40.1766 239.004 40.3248 238.315 40.6237C237.626 40.9226 237.028 41.3297 236.519 41.8428C236.01 42.3558 235.609 42.9606 235.317 43.6596C235.025 44.3562 234.878 45.0998 234.878 45.8858Z" fill="#FBFAFC"/>
<path d="M251.974 41.7769C252.31 41.318 252.691 40.9038 253.116 40.5296C253.541 40.1554 254.005 39.8377 254.51 39.5741C255.014 39.3105 255.549 39.1058 256.112 38.9622C256.674 38.8187 257.258 38.7457 257.86 38.7457H257.993C258.232 38.7457 258.414 38.814 258.542 38.9481C258.671 39.0823 258.736 39.2493 258.736 39.4494C258.736 39.6588 258.664 39.8306 258.521 39.9648C258.379 40.0989 258.201 40.1672 257.996 40.1672H257.863C257.062 40.1672 256.305 40.3248 255.593 40.6378C254.881 40.9508 254.255 41.3791 253.718 41.9228C253.179 42.4664 252.754 43.1018 252.443 43.829C252.133 44.5562 251.976 45.3375 251.976 46.1753V52.094C251.976 52.294 251.909 52.4658 251.771 52.6094C251.633 52.7529 251.467 52.8259 251.271 52.8259C251.075 52.8259 250.921 52.7529 250.779 52.6094C250.636 52.4658 250.566 52.294 250.566 52.094V39.4659C250.566 39.2658 250.634 39.0964 250.772 38.9575C250.909 38.8187 251.075 38.7481 251.271 38.7481C251.477 38.7481 251.645 38.8187 251.778 38.9575C251.911 39.0964 251.976 39.2658 251.976 39.4659V41.7816L251.974 41.7769Z" fill="#FBFAFC"/>
<path d="M260.41 46.5283C260.469 47.2461 260.655 47.9121 260.966 48.531C261.276 49.1499 261.68 49.6865 262.175 50.1454C262.67 50.6043 263.235 50.9644 263.873 51.228C264.51 51.4915 265.194 51.6233 265.925 51.6233C266.775 51.6233 267.569 51.4492 268.305 51.1009C269.04 50.7526 269.635 50.2796 270.091 49.6818C270.329 49.4818 270.565 49.4229 270.803 49.503C270.922 49.543 271.025 49.6324 271.113 49.7712C271.223 49.9007 271.279 50.0583 271.284 50.2419C271.289 50.4255 271.202 50.5973 271.025 50.7573C270.45 51.4045 269.738 51.941 268.881 52.3646C268.027 52.7882 267.039 53 265.923 53C264.945 53 264.027 52.8141 263.172 52.4399C262.318 52.0658 261.568 51.5574 260.926 50.915C260.284 50.2725 259.777 49.5171 259.406 48.651C259.035 47.785 258.85 46.8578 258.85 45.8717C258.85 44.8857 259.035 43.9608 259.406 43.0995C259.777 42.2381 260.284 41.4851 260.926 40.8426C261.568 40.2001 262.318 39.6918 263.172 39.3176C264.027 38.9434 264.945 38.7575 265.923 38.7575C266.901 38.7575 267.805 38.9411 268.666 39.3105C269.526 39.68 270.275 40.1836 270.913 40.8285C271.55 41.4709 272.057 42.224 272.433 43.0853C272.809 43.9467 272.995 44.8668 272.995 45.8435C272.995 46.0435 272.93 46.2082 272.802 46.3377C272.673 46.4671 272.51 46.533 272.311 46.533H260.406L260.41 46.5283ZM271.545 45.3187C271.496 44.5915 271.317 43.9114 271.004 43.2783C270.693 42.6453 270.285 42.0946 269.78 41.6263C269.276 41.1579 268.694 40.7885 268.038 40.5202C267.382 40.2519 266.682 40.1177 265.939 40.1177C265.197 40.1177 264.499 40.2519 263.84 40.5202C263.182 40.7885 262.607 41.1603 262.112 41.6333C261.617 42.1063 261.216 42.6594 260.903 43.2924C260.592 43.9255 260.41 44.6009 260.361 45.3163H271.541L271.545 45.3187Z" fill="#FBFAFC"/>
<path d="M106.477 53.9555C106.579 53.8684 106.717 54.0096 106.628 54.1108C106.269 54.5227 105.914 54.9345 105.571 55.3581C104.945 56.1088 104.347 56.876 103.801 57.6715C103.264 58.4716 102.748 59.2812 102.379 60.1284C102.005 60.9568 101.783 61.8746 101.98 62.5194C102.075 62.8371 102.248 63.0842 102.521 63.2913C102.79 63.496 103.147 63.6702 103.537 63.7808C103.925 63.8914 104.335 63.9573 104.76 63.9855C105.188 64.0091 105.629 63.9902 106.073 63.9502C106.965 63.8608 107.873 63.6796 108.797 63.4584C109.734 63.2348 110.654 62.9924 111.564 62.7265C115.209 61.6486 118.747 60.1401 122.261 58.5281C124.012 57.7185 125.751 56.8854 127.467 56.0029C129.186 55.1275 130.888 54.2238 132.567 53.273C139.282 49.4865 145.696 45.1375 151.692 40.2472C152.442 39.6306 153.172 39.0187 153.927 38.3786C154.678 37.7456 155.412 37.129 156.112 36.4936C156.813 35.8582 157.459 35.1922 158.024 34.4814C158.314 34.1284 158.557 33.7566 158.788 33.3777C158.996 32.9941 159.197 32.6011 159.32 32.1916C159.463 31.7868 159.551 31.3656 159.547 30.9867C159.547 30.6031 159.456 30.2642 159.243 29.9818C159.035 29.6971 158.706 29.457 158.312 29.2876C157.917 29.1205 157.473 29.0028 157.018 28.9228C156.1 28.7651 155.131 28.7557 154.167 28.7934C153.628 28.8098 153.086 28.8499 152.544 28.8993C152.411 28.911 152.379 28.7181 152.507 28.6851C153.987 28.3039 155.507 28.0215 157.102 28.0591C157.613 28.078 158.139 28.1368 158.664 28.2968C159.185 28.4545 159.727 28.7298 160.158 29.1911C160.378 29.417 160.541 29.6947 160.677 29.9842C160.728 30.1301 160.787 30.2807 160.824 30.429C160.852 30.5772 160.894 30.7325 160.906 30.8808C160.978 31.4833 160.913 32.0504 160.791 32.5893C160.555 33.6789 160.058 34.6627 159.481 35.5405C158.902 36.423 158.232 37.2161 157.541 37.955C156.852 38.6987 156.128 39.3906 155.428 40.0683C154.734 40.7437 154.013 41.445 153.285 42.111C147.447 47.4696 140.977 52.1222 134.078 56.0053C132.35 56.9678 130.601 57.8927 128.826 58.7681C127.049 59.6342 125.259 60.472 123.44 61.2415C119.814 62.7783 116.082 64.1973 112.174 65.101C111.195 65.3317 110.212 65.5105 109.236 65.6776C108.251 65.8423 107.228 65.9835 106.173 65.9977C105.122 66.0094 104.011 65.9129 102.937 65.4846C102.407 65.2752 101.886 64.981 101.419 64.5433C100.955 64.1126 100.588 63.4819 100.49 62.8347C100.382 62.1876 100.483 61.5804 100.646 61.0462C100.807 60.5049 101.053 60.0295 101.309 59.5753C101.832 58.6693 102.458 57.8762 103.126 57.1325C103.798 56.3936 104.501 55.6946 105.23 55.031C105.638 54.6639 106.054 54.3062 106.472 53.9531L106.477 53.9555Z" fill="#FBFAFC"/>
</svg>
