<svg width="60" height="46" viewBox="0 0 60 46" fill="none" xmlns="http://www.w3.org/2000/svg">
<path d="M27.3258 0H51.5573V46H6.15726V21.4482C6.15726 9.61095 15.6429 0 27.3258 0Z" fill="#0CCA98"/>
<path d="M25.5603 23.6446C24.2373 23.1362 23.0645 22.4928 22.0421 21.7164C21.0197 20.9399 20.2025 20.0155 19.5908 18.9431C18.979 17.8707 18.6742 16.6031 18.6742 15.1425C18.6742 13.6819 18.9896 12.3263 19.6183 11.1338C20.247 9.9413 21.0789 8.92894 22.1098 8.09675C23.1407 7.26456 24.3092 6.62111 25.6153 6.16856C26.9193 5.716 28.2572 5.48865 29.6268 5.48865C30.6852 5.48865 31.7267 5.60018 32.7491 5.82109C33.7716 6.04416 34.7241 6.37231 35.6111 6.80557C36.4959 7.24097 37.3003 7.78146 38.0201 8.4292C38.7419 9.07693 39.3473 9.82548 39.8406 10.677C40.0777 11.0652 40.1369 11.4641 40.0184 11.8695C39.8998 12.277 39.7114 12.6095 39.4574 12.869C39.1653 13.1457 38.7779 13.313 38.2932 13.3687C37.8084 13.4245 37.3385 13.2765 36.8833 12.9247C36.3541 12.3328 35.8291 11.8287 35.3084 11.4126C34.7876 10.9966 34.2351 10.6598 33.6509 10.4003C33.0666 10.1408 32.4506 9.95202 31.8029 9.83191C31.1551 9.7118 30.4481 9.65175 29.6818 9.65175C28.8414 9.65175 28.0158 9.77186 27.203 10.0121C26.3901 10.2523 25.6598 10.5998 25.012 11.0523C24.3643 11.5049 23.8351 12.0754 23.4244 12.7574C23.0137 13.4416 22.8084 14.2288 22.8084 15.1146C22.8084 16.0583 23.0539 16.8433 23.5472 17.4718C24.0404 18.1002 24.6733 18.6278 25.4502 19.0525C26.225 19.4772 27.0971 19.8289 28.0645 20.1078C29.0319 20.3844 29.9803 20.6354 30.9117 20.8563C32.2432 21.2638 33.5451 21.7292 34.8131 22.2569C36.081 22.7845 37.2093 23.4322 38.1937 24.1979C39.1801 24.9658 39.9697 25.8902 40.5624 26.9712C41.1551 28.0522 41.4515 29.3519 41.4515 30.8683C41.4515 32.4598 41.1361 33.9161 40.5074 35.2373C39.8766 36.5607 39.0235 37.6931 37.9481 38.6369C36.8706 39.5806 35.6153 40.3163 34.1822 40.8418C32.7491 41.3694 31.2292 41.6332 29.6225 41.6332C28.308 41.6332 27.04 41.4573 25.8164 41.1056C24.5929 40.7538 23.471 40.2734 22.4485 39.6621C21.4261 39.0508 20.5264 38.3302 19.7517 37.498C18.9748 36.6658 18.3863 35.7778 17.9862 34.8341C17.675 34.1499 17.6263 33.5622 17.8359 33.0732C18.0455 32.5842 18.3694 32.2174 18.8075 31.9772C19.3368 31.7177 19.8215 31.6726 20.2597 31.8378C20.6979 32.0051 21.153 32.3933 21.6293 33.0024C21.9934 33.6866 22.4591 34.3065 23.0264 34.862C23.5916 35.4175 24.2267 35.8894 24.9295 36.2776C25.6323 36.6658 26.3943 36.9618 27.2157 37.1655C28.037 37.3693 28.8943 37.4701 29.7898 37.4701C30.6852 37.4701 31.6103 37.3307 32.5142 37.054C33.418 36.7773 34.2288 36.3698 34.9506 35.8336C35.6725 35.2974 36.2546 34.6325 36.7034 33.8368C37.1501 33.041 37.3744 32.1166 37.3744 31.0635C37.3744 30.0833 37.1458 29.2597 36.6907 28.5948C36.2335 27.9299 35.645 27.3701 34.9252 26.9154C34.2034 26.4629 33.3821 26.0789 32.4612 25.7636C31.5404 25.4484 30.6132 25.1524 29.6818 24.8757C28.2572 24.5604 26.8833 24.1507 25.5603 23.6403V23.6446Z" fill="#251B45"/>
<path d="M5.97521 32.2345C6.07682 32.1487 6.2123 32.2903 6.1255 32.3911C5.76776 32.8007 5.41636 33.2125 5.07555 33.6351C4.45531 34.3836 3.86259 35.1493 3.31856 35.9408C2.78723 36.7386 2.27284 37.5472 1.90874 38.3901C1.53829 39.2159 1.31814 40.1317 1.51289 40.7752C1.60815 41.0926 1.77961 41.3371 2.05057 41.5452C2.31729 41.7511 2.67292 41.9248 3.05819 42.0321C3.44346 42.1414 3.84989 42.2079 4.27326 42.2358C4.69663 42.2573 5.13482 42.2422 5.57512 42.2015C6.45997 42.1136 7.35963 41.9312 8.27622 41.7103C9.20552 41.4873 10.1179 41.2449 11.0197 40.9811C14.6352 39.9065 18.145 38.4009 21.6293 36.7944C23.3673 35.9879 25.0925 35.1558 26.7944 34.2764C28.4985 33.4056 30.1877 32.5005 31.8537 31.5525C38.5154 27.7776 44.8766 23.4407 50.8249 18.5634C51.57 17.9478 52.2919 17.3387 53.0413 16.6996C53.7885 16.069 54.5146 15.4534 55.2089 14.8186C55.9032 14.1858 56.5468 13.5209 57.1056 12.8131C57.3914 12.4614 57.6348 12.0903 57.8634 11.7129C58.0688 11.3289 58.2678 10.9386 58.3926 10.5311C58.5345 10.1278 58.6213 9.70744 58.617 9.32995C58.617 8.94817 58.5281 8.60929 58.3164 8.32832C58.1111 8.04306 57.7851 7.80498 57.3935 7.63769C57.0019 7.47039 56.5637 7.35243 56.1107 7.27521C55.2004 7.11864 54.2394 7.11006 53.2847 7.14652C52.7491 7.16154 52.2114 7.20229 51.6738 7.25162C51.5425 7.26449 51.5087 7.07146 51.6378 7.03714C53.1069 6.65536 54.6141 6.37653 56.1954 6.41299C56.7034 6.4323 57.222 6.49021 57.7449 6.65107C58.2614 6.80979 58.7991 7.08218 59.2267 7.54332C59.4447 7.76852 59.6077 8.04735 59.7411 8.33476C59.7919 8.4806 59.8512 8.63074 59.8871 8.77873C59.9147 8.92673 59.9549 9.08115 59.9697 9.22915C60.0417 9.8297 59.9761 10.3959 59.8554 10.9321C59.6225 12.0196 59.1272 12.9997 58.5556 13.8748C57.982 14.7542 57.3173 15.5456 56.6314 16.2835C55.9477 17.0256 55.2301 17.7141 54.5358 18.3897C53.8478 19.0632 53.1323 19.7645 52.4083 20.4251C46.6187 25.7679 40.2004 30.4071 33.3567 34.2807C31.642 35.2394 29.9083 36.1638 28.1492 37.0368C26.3859 37.899 24.6098 38.7355 22.8063 39.5033C19.2076 41.0347 15.5095 42.4503 11.6314 43.3511C10.6619 43.5828 9.68605 43.7608 8.71865 43.9259C7.74066 44.0911 6.72669 44.2305 5.67885 44.2434C4.63524 44.2541 3.53236 44.1576 2.4697 43.7329C1.94261 43.5248 1.4261 43.231 0.964624 42.7935C0.50315 42.3645 0.139052 41.7361 0.0437938 41.0905C-0.0620487 40.4449 0.0374433 39.84 0.198324 39.306C0.359204 38.7676 0.600525 38.2915 0.854547 37.8389C1.37318 36.936 1.99341 36.1445 2.6581 35.4024C3.32491 34.6646 4.02136 33.9697 4.74532 33.3069C5.15175 32.9423 5.56242 32.5841 5.97944 32.2324L5.97521 32.2345Z" fill="#EFEFEF"/>
</svg>
