<svg width="455" height="111" viewBox="0 0 455 111" fill="none" xmlns="http://www.w3.org/2000/svg">
<path d="M19.5161 44.913C16.2239 43.654 13.3092 42.0655 10.7681 40.1436C8.22699 38.2217 6.19566 35.9351 4.67411 33.2837C3.15256 30.6323 2.39373 27.4985 2.39373 23.8822C2.39373 20.266 3.17591 16.9164 4.74416 13.9669C6.30851 11.0174 8.37487 8.51116 10.9393 6.45593C13.5038 4.39678 16.4068 2.80829 19.6523 1.68655C22.8977 0.568724 26.221 0.00785065 29.626 0.00785065C32.2566 0.00785065 34.8444 0.282404 37.3855 0.83151C39.9267 1.38062 42.2965 2.19251 44.4991 3.26719C46.7016 4.34187 48.698 5.67934 50.488 7.27959C52.282 8.87984 53.788 10.735 55.0138 12.8373C55.6014 13.7983 55.7492 14.7827 55.4574 15.7868C55.1616 16.7948 54.6986 17.6185 54.0604 18.2578C53.3327 18.9442 52.3676 19.356 51.169 19.4933C49.9666 19.6306 48.7952 19.2658 47.6628 18.3951C46.3475 16.9321 45.0439 15.6848 43.7481 14.6572C42.4561 13.6296 41.0824 12.7942 39.6309 12.1509C38.1794 11.5116 36.6462 11.041 35.0351 10.7429C33.4241 10.4448 31.6651 10.2958 29.7583 10.2958C27.6686 10.2958 25.6178 10.5938 23.5982 11.1861C21.5785 11.7823 19.7612 12.6373 18.1541 13.759C16.543 14.8808 15.2277 16.2889 14.2042 17.9793C13.1847 19.6737 12.671 21.6152 12.671 23.8116C12.671 26.1453 13.282 28.0907 14.5078 29.6439C15.7336 31.201 17.3096 32.5032 19.2398 33.5543C21.1699 34.6055 23.3336 35.4762 25.7424 36.1626C28.1473 36.849 30.5094 37.4648 32.8209 38.0139C36.1325 39.0219 39.3663 40.175 42.5222 41.4772C45.6743 42.7793 48.48 44.3835 50.9277 46.2818C53.3794 48.1802 55.3406 50.4668 56.8155 53.1418C58.2904 55.8167 59.0297 59.0329 59.0297 62.7825C59.0297 66.7165 58.2475 70.317 56.6793 73.5881C55.1149 76.8592 52.9902 79.6597 50.3129 81.9934C47.6356 84.3271 44.5147 86.1431 40.954 87.4491C37.3894 88.7513 33.6109 89.4063 29.6182 89.4063C26.3494 89.4063 23.1974 88.971 20.1581 88.1041C17.1189 87.2373 14.3249 86.045 11.7838 84.535C9.24266 83.0249 7.00897 81.2403 5.07882 79.1851C3.14867 77.1259 1.68549 74.9295 0.689277 72.5997C-0.0812279 70.9093 -0.205754 69.4541 0.315699 68.2422C0.837152 67.0302 1.64268 66.1281 2.73228 65.5319C4.04759 64.8926 5.25004 64.7789 6.33965 65.1907C7.42925 65.6025 8.56166 66.5635 9.74466 68.0735C10.6514 69.7679 11.811 71.2976 13.2158 72.6703C14.6206 74.0431 16.2006 75.208 17.9478 76.1689C19.6951 77.1299 21.5902 77.8633 23.6332 78.3653C25.6762 78.8713 27.8087 79.1184 30.0307 79.1184C32.2527 79.1184 34.5565 78.7733 36.8057 78.0908C39.0511 77.4044 41.0707 76.4003 42.8647 75.0707C44.6586 73.745 46.1101 72.0977 47.2231 70.1327C48.3361 68.1677 48.8925 65.8771 48.8925 63.2728C48.8925 60.8489 48.3244 58.8132 47.192 57.1659C46.0557 55.5186 44.5925 54.138 42.8024 53.0162C41.0085 51.8945 38.9655 50.9453 36.6773 50.1687C34.3852 49.3921 32.0815 48.6587 29.7661 47.9723C26.2249 47.1957 22.8121 46.1759 19.52 44.9208L19.5161 44.913Z" fill="#0CCA98"/>
<path d="M82.3823 83.4367C82.3823 84.8566 81.8841 86.0568 80.884 87.0373C79.8839 88.0218 78.6815 88.512 77.2767 88.512C75.8719 88.512 74.6655 88.0218 73.6693 87.0373C72.6692 86.0528 72.1711 84.8527 72.1711 83.4367V5.76954C72.1711 4.30657 72.6692 3.09461 73.6693 2.13367C74.6655 1.17274 75.868 0.694229 77.2767 0.694229C78.6854 0.694229 79.8839 1.17274 80.884 2.13367C81.8803 3.09461 82.3823 4.30657 82.3823 5.76954V83.4367Z" fill="#0CCA98"/>
<path d="M107.089 58.1543C108.86 62.3393 111.276 65.9752 114.339 69.0619C117.401 72.1487 120.985 74.5844 125.095 76.369C129.2 78.1536 133.613 79.0439 138.333 79.0439C142.1 79.0439 145.595 78.5419 148.817 77.5339C152.039 76.5298 154.911 75.0746 157.429 73.1763C159.946 71.278 162.091 68.9913 163.861 66.3164C165.632 63.6415 166.924 60.6096 167.741 57.2248H149.019C147.611 57.2248 146.42 56.7227 145.447 55.7147C144.47 54.7106 143.984 53.4947 143.984 52.0788C143.984 50.6629 144.47 49.4392 145.447 48.4077C146.424 47.3801 147.614 46.8623 149.019 46.8623L173.66 46.9996C175.111 46.9996 176.36 47.4703 177.403 48.4077C178.446 49.3451 178.968 50.5688 178.968 52.0788C178.559 57.4287 177.244 62.3707 175.018 66.8969C172.792 71.427 169.877 75.361 166.27 78.6987C162.663 82.0365 158.475 84.6448 153.712 86.5196C148.945 88.3944 143.82 89.3318 138.329 89.3318C134.243 89.3318 130.309 88.8062 126.519 87.7551C122.729 86.7039 119.199 85.2057 115.934 83.2602C112.665 81.3148 109.692 78.9968 107.015 76.2944C104.338 73.596 102.046 70.5994 100.139 67.3048C98.2321 64.0101 96.7572 60.4684 95.7143 56.6717C94.6714 52.875 94.1499 48.9175 94.1499 44.8032C94.1499 38.7199 95.2823 32.966 97.5549 27.5495C99.8237 22.129 102.933 17.3714 106.879 13.2766C110.829 9.18185 115.479 5.94604 120.834 3.56919C126.188 1.19235 131.975 0 138.193 0C144.412 0 149.856 1.12175 155.211 3.36132C160.565 5.60481 165.445 8.91906 169.846 13.308C170.842 14.316 171.344 15.5162 171.344 16.9086C171.344 18.3009 170.842 19.4815 169.846 20.4425C168.846 21.4505 167.655 21.976 166.274 22.0192C164.889 22.0662 163.674 21.5838 162.631 20.5797C159.226 17.1478 155.417 14.5984 151.195 12.9315C146.972 11.2606 142.661 10.4291 138.259 10.4291C133.858 10.4291 129.34 11.3116 125.258 13.0687C121.172 14.8298 117.588 17.2419 114.502 20.3091C111.416 23.3723 108.965 27.0004 107.151 31.1853C105.334 35.3703 104.427 39.8887 104.427 44.7365C104.427 49.5843 105.311 53.9654 107.081 58.1504L107.089 58.1543Z" fill="#0CCA98"/>
<path d="M241.667 62.0334H204.021L194.288 85.4292C193.744 86.802 192.814 87.7276 191.498 88.2061C190.183 88.6846 188.821 88.6297 187.412 88.0335C186.097 87.4844 185.221 86.5588 184.793 85.2566C184.361 83.9545 184.443 82.617 185.031 81.2442L218.388 3.85159C219.248 1.7493 220.816 0.694229 223.085 0.694229C224.081 0.694229 225 0.968782 225.84 1.51789C226.681 2.067 227.303 2.82006 227.712 3.78099L260.727 81.3109C261.315 82.6366 261.408 83.9427 260.999 85.2213C260.591 86.5039 259.727 87.4413 258.411 88.0335C257.096 88.6729 255.769 88.7317 254.431 88.2061C253.092 87.6805 252.127 86.7549 251.539 85.4292L241.667 62.0334ZM208.313 51.7415H237.378L222.813 17.1635L208.313 51.7415Z" fill="#0CCA98"/>
<path d="M289.578 71.1171C288.492 70.6935 287.504 70.164 286.613 69.5247C285.722 68.8854 284.994 68.1127 284.426 67.2067C283.858 66.3007 283.574 65.2182 283.574 63.9552C283.574 62.6923 283.854 61.5588 284.414 60.5547C284.974 59.5506 285.702 58.7073 286.601 58.0249C287.5 57.3424 288.504 56.8208 289.617 56.456C290.73 56.0912 291.835 55.9069 292.94 55.9069C294.866 55.9069 296.621 56.2991 298.205 57.0757C299.785 57.8562 301.015 59.0015 301.887 60.5115C302.019 60.7429 302.046 60.9822 301.972 61.2215C301.898 61.4607 301.785 61.649 301.638 61.7823C301.455 61.9471 301.229 62.0451 300.957 62.0686C300.684 62.0922 300.408 61.9902 300.128 61.7588C299.155 60.4488 298.073 59.5388 296.878 59.0329C295.684 58.5269 294.38 58.272 292.96 58.272C292.185 58.272 291.388 58.3896 290.563 58.621C289.738 58.8525 288.986 59.2054 288.302 59.68C287.617 60.1546 287.052 60.7429 286.609 61.4489C286.165 62.1549 285.932 62.9904 285.916 63.9513C285.916 64.5985 286.037 65.175 286.274 65.681C286.512 66.1869 286.835 66.638 287.239 67.0263C287.644 67.4185 288.103 67.7597 288.625 68.0617C289.146 68.3638 289.683 68.6187 290.243 68.8344C290.804 69.0501 291.36 69.2423 291.913 69.4071C292.465 69.5718 292.979 69.7208 293.458 69.8542C294.711 70.2699 295.925 70.7249 297.104 71.223C298.283 71.7212 299.33 72.3134 300.244 73.0037C301.159 73.694 301.891 74.5137 302.443 75.4708C302.996 76.4239 303.272 77.5652 303.272 78.8948C303.272 80.3382 302.988 81.6482 302.42 82.817C301.852 83.9858 301.089 84.9821 300.135 85.8057C299.178 86.6294 298.081 87.2609 296.836 87.7002C295.59 88.1394 294.302 88.3591 292.967 88.3591C291.831 88.3591 290.726 88.2061 289.656 87.9002C288.586 87.5942 287.597 87.1707 286.691 86.6294C285.784 86.0881 284.994 85.4488 284.317 84.7114C283.64 83.9741 283.122 83.1779 282.76 82.3346C282.577 81.9345 282.554 81.6011 282.686 81.3266C282.819 81.052 283.017 80.8481 283.278 80.7147C283.823 80.4323 284.348 80.6324 284.858 81.3109C285.169 82.0091 285.613 82.6484 286.181 83.2289C286.749 83.8093 287.395 84.3035 288.123 84.7114C288.846 85.1194 289.632 85.4331 290.481 85.6567C291.329 85.8803 292.197 85.994 293.088 85.994C294.026 85.994 294.964 85.845 295.894 85.5469C296.824 85.2488 297.664 84.8056 298.415 84.2133C299.167 83.625 299.77 82.8876 300.233 82.0091C300.692 81.1305 300.925 80.1068 300.925 78.9458C300.925 77.9339 300.692 77.0749 300.221 76.3689C299.75 75.663 299.135 75.0589 298.369 74.5491C297.602 74.0431 296.734 73.6038 295.762 73.2273C294.789 72.8507 293.8 72.4938 292.796 72.1447C291.742 71.878 290.672 71.5329 289.586 71.1093L289.578 71.1171Z" fill="#FBFAFC"/>
<path d="M307.062 71.8388C307.681 70.3876 308.525 69.1247 309.596 68.0539C310.666 66.9832 311.919 66.136 313.351 65.5123C314.783 64.8887 316.308 64.5789 317.923 64.5789C319.538 64.5789 321.083 64.8887 322.507 65.5123C323.932 66.136 325.177 66.9832 326.239 68.0539C327.302 69.1247 328.142 70.3876 328.761 71.8388C329.38 73.294 329.687 74.8393 329.687 76.4827C329.687 78.1261 329.38 79.644 328.761 81.0913C328.142 82.5346 327.302 83.7937 326.239 84.8644C325.177 85.9352 323.932 86.7824 322.507 87.406C321.083 88.0296 319.554 88.3395 317.923 88.3395C316.293 88.3395 314.787 88.0296 313.351 87.406C311.919 86.7824 310.666 85.9352 309.596 84.8644C308.525 83.7937 307.681 82.5346 307.062 81.0913C306.444 79.6479 306.136 78.1104 306.136 76.4827C306.136 74.855 306.444 73.29 307.062 71.8388ZM309.238 80.146C309.724 81.2913 310.389 82.2954 311.238 83.1583C312.086 84.0212 313.082 84.7075 314.226 85.2135C315.37 85.7195 316.604 85.9744 317.919 85.9744C319.235 85.9744 320.492 85.7195 321.64 85.2135C322.784 84.7075 323.776 84.0212 324.617 83.1583C325.457 82.2954 326.119 81.2913 326.605 80.146C327.091 79.0008 327.333 77.7809 327.333 76.4866C327.333 75.1923 327.091 73.9372 326.605 72.7762C326.119 71.6153 325.453 70.6073 324.605 69.7483C323.757 68.8933 322.76 68.2147 321.616 67.7166C320.472 67.2185 319.239 66.9714 317.923 66.9714C316.608 66.9714 315.374 67.2185 314.23 67.7166C313.086 68.2147 312.09 68.8933 311.242 69.7483C310.393 70.6033 309.724 71.6113 309.241 72.7762C308.755 73.9372 308.514 75.1766 308.514 76.4866C308.514 77.7966 308.755 79.0008 309.241 80.146H309.238Z" fill="#FBFAFC"/>
<path d="M341.618 64.6024C341.949 64.6024 342.229 64.7161 342.459 64.9397C342.688 65.1633 342.805 65.4417 342.805 65.7751C342.805 66.1242 342.688 66.4105 342.459 66.6341C342.229 66.8577 341.949 66.9714 341.618 66.9714H337.91V86.7235C337.91 87.0726 337.797 87.3629 337.575 87.5943C337.353 87.8257 337.077 87.9433 336.746 87.9433C336.415 87.9433 336.135 87.8257 335.906 87.5943C335.676 87.3629 335.559 87.0726 335.559 86.7235V66.9714H332.423C332.092 66.9714 331.812 66.8537 331.582 66.6223C331.353 66.3909 331.236 66.1085 331.236 65.7751C331.236 65.4417 331.349 65.1633 331.582 64.9397C331.812 64.7161 332.092 64.6024 332.423 64.6024H335.559V62.81C335.575 61.798 335.773 60.8606 336.151 59.9938C336.528 59.1309 337.038 58.3936 337.672 57.7778C338.307 57.162 339.046 56.6835 339.894 56.3344C340.743 55.9853 341.661 55.8128 342.649 55.8128C342.996 55.8128 343.284 55.9108 343.513 56.1109C343.743 56.3109 343.86 56.5854 343.86 56.9345C343.86 57.2836 343.743 57.5464 343.513 57.7699C343.284 57.9935 342.996 58.1073 342.649 58.1073H342.552C341.895 58.1229 341.288 58.2602 340.735 58.5191C340.182 58.7779 339.7 59.1153 339.291 59.5388C338.879 59.9624 338.548 60.4566 338.303 61.0214C338.058 61.5862 337.925 62.1824 337.906 62.8139V64.6063H341.614L341.618 64.6024Z" fill="#FBFAFC"/>
<path d="M350.962 64.6024H354.717C355.048 64.6024 355.328 64.7161 355.557 64.9397C355.787 65.1633 355.904 65.4417 355.904 65.7751C355.904 66.1242 355.787 66.4105 355.557 66.6341C355.328 66.8576 355.048 66.9714 354.717 66.9714H350.962V86.8726C350.962 87.206 350.845 87.4844 350.615 87.708C350.386 87.9316 350.106 88.0453 349.775 88.0453C349.444 88.0453 349.168 87.9316 348.946 87.708C348.724 87.4844 348.611 87.206 348.611 86.8726V66.9714H345.521C345.191 66.9714 344.911 66.8537 344.681 66.6223C344.451 66.3909 344.335 66.1085 344.335 65.7751C344.335 65.4417 344.451 65.1633 344.681 64.9397C344.911 64.7161 345.191 64.6024 345.521 64.6024H348.611V57.3306C348.611 56.9973 348.724 56.7188 348.946 56.4952C349.168 56.2717 349.444 56.1579 349.775 56.1579C350.106 56.1579 350.386 56.2717 350.615 56.4952C350.845 56.7188 350.962 56.9973 350.962 57.3306V64.6024Z" fill="#FBFAFC"/>
<path d="M373.053 71.8741L375.871 65.3241C376.003 65.0103 376.221 64.7867 376.524 64.6652C376.828 64.5396 377.131 64.5436 377.427 64.6769C377.739 64.8103 377.953 65.026 378.069 65.3241C378.186 65.6222 378.167 65.9399 378.019 66.2693L374.31 74.7883L378.338 84.1545L386.42 65.3241C386.553 65.0103 386.771 64.7867 387.074 64.6652C387.378 64.5396 387.681 64.5436 387.977 64.6769C388.288 64.8103 388.502 65.026 388.619 65.3241C388.736 65.6222 388.716 65.9399 388.568 66.2693L379.451 87.3158L379.229 87.6649C379.147 87.7629 379.023 87.8571 378.859 87.9394C378.696 88.0061 378.579 88.0375 378.513 88.0375H378.19C378.093 88.0375 377.976 88.0061 377.844 87.9394C377.696 87.8727 377.571 87.7825 377.474 87.6649C377.377 87.5668 377.303 87.4492 377.252 87.3158L373.077 77.6751L368.901 87.3158L368.679 87.6649C368.598 87.7629 368.473 87.8571 368.31 87.9394C368.146 88.0061 368.029 88.0375 367.963 88.0375H367.64C367.543 88.0375 367.426 88.0061 367.294 87.9394C367.146 87.8727 367.022 87.7825 366.924 87.6649C366.827 87.5668 366.753 87.4492 366.702 87.3158L357.585 66.2693C357.437 65.9359 357.421 65.6222 357.534 65.3241C357.647 65.026 357.857 64.8103 358.153 64.6769C358.464 64.5279 358.772 64.5161 359.067 64.6377C359.363 64.7632 359.577 64.9907 359.709 65.3241L367.792 84.1545L371.82 74.7883L368.138 66.2693C367.99 65.9359 367.975 65.6222 368.088 65.3241C368.205 65.026 368.411 64.8103 368.707 64.6769C369.018 64.5279 369.325 64.5161 369.621 64.6377C369.917 64.7632 370.131 64.9907 370.263 65.3241L373.057 71.8741H373.053Z" fill="#FBFAFC"/>
<path d="M389.113 76.4945C389.113 74.8511 389.421 73.3057 390.04 71.8545C390.658 70.4033 391.503 69.1404 392.573 68.0735C393.643 67.0028 394.896 66.1595 396.328 65.5359C397.76 64.9122 399.286 64.6024 400.901 64.6024C402.515 64.6024 404.033 64.9083 405.461 65.5241C406.886 66.136 408.131 66.9753 409.193 68.0382C410.256 69.1011 411.096 70.3445 411.715 71.7722C412.334 73.1998 412.649 74.7334 412.668 76.3768V86.802C412.668 87.1511 412.552 87.4452 412.322 87.6845C412.092 87.9237 411.804 88.0453 411.458 88.0453C411.112 88.0453 410.855 87.9237 410.645 87.6845C410.431 87.4452 410.322 87.1471 410.322 86.802L410.298 83.4407C409.754 84.1702 409.143 84.837 408.458 85.4331C407.773 86.0293 407.033 86.547 406.232 86.9785C405.434 87.4099 404.586 87.7472 403.687 87.9865C402.788 88.2257 401.862 88.3473 400.908 88.3473C399.293 88.3473 397.772 88.0375 396.336 87.4139C394.9 86.7902 393.651 85.947 392.581 84.8762C391.51 83.8054 390.666 82.5503 390.047 81.107C389.429 79.6636 389.121 78.13 389.121 76.5023L389.113 76.4945ZM391.46 76.4827C391.46 77.777 391.701 78.9968 392.191 80.1421C392.678 81.2874 393.347 82.2915 394.196 83.1544C395.044 84.0172 396.044 84.7036 397.188 85.2096C398.336 85.7155 399.57 85.9705 400.889 85.9705C402.208 85.9705 403.465 85.7155 404.613 85.2096C405.761 84.7036 406.753 84.0172 407.594 83.1544C408.434 82.2915 409.1 81.2874 409.586 80.1421C410.073 78.9968 410.318 77.777 410.318 76.4827C410.318 75.1884 410.073 73.9333 409.586 72.7723C409.1 71.6113 408.43 70.6033 407.582 69.7444C406.734 68.8893 405.734 68.2108 404.59 67.7127C403.446 67.2146 402.212 66.9675 400.889 66.9675C399.566 66.9675 398.336 67.2146 397.188 67.7127C396.04 68.2108 395.044 68.8893 394.196 69.7444C393.347 70.5994 392.678 71.6074 392.191 72.7723C391.705 73.9333 391.46 75.1727 391.46 76.4827Z" fill="#FBFAFC"/>
<path d="M419.953 69.6346C420.513 68.8697 421.148 68.1794 421.856 67.5558C422.564 66.9322 423.339 66.4027 424.179 65.9634C425.02 65.5241 425.911 65.1829 426.849 64.9436C427.786 64.7044 428.759 64.5828 429.763 64.5828H429.985C430.382 64.5828 430.686 64.6965 430.9 64.9201C431.114 65.1436 431.223 65.4221 431.223 65.7555C431.223 66.1046 431.102 66.3909 430.865 66.6145C430.627 66.838 430.331 66.9518 429.989 66.9518H429.767C428.432 66.9518 427.172 67.2146 425.985 67.7362C424.798 68.2579 423.755 68.9717 422.86 69.8777C421.961 70.7838 421.253 71.8427 420.735 73.0547C420.218 74.2667 419.957 75.5688 419.957 76.9651V86.8294C419.957 87.1628 419.844 87.4491 419.614 87.6884C419.385 87.9276 419.109 88.0492 418.782 88.0492C418.455 88.0492 418.198 87.9276 417.961 87.6884C417.723 87.4491 417.606 87.1628 417.606 86.8294V65.783C417.606 65.4496 417.719 65.1672 417.949 64.9358C418.178 64.7044 418.455 64.5867 418.782 64.5867C419.124 64.5867 419.404 64.7044 419.626 64.9358C419.848 65.1672 419.957 65.4496 419.957 65.783V69.6424L419.953 69.6346Z" fill="#FBFAFC"/>
<path d="M434.013 77.5535C434.11 78.7497 434.421 79.8597 434.939 80.8912C435.456 81.9228 436.13 82.817 436.955 83.5819C437.78 84.3467 438.721 84.9468 439.784 85.3861C440.846 85.8254 441.986 86.045 443.204 86.045C444.621 86.045 445.944 85.7548 447.17 85.1743C448.395 84.5938 449.388 83.8054 450.147 82.8092C450.543 82.4758 450.936 82.3778 451.333 82.5111C451.532 82.5778 451.703 82.7268 451.851 82.9582C452.034 83.174 452.127 83.4367 452.135 83.7427C452.143 84.0486 451.999 84.3349 451.703 84.6016C450.746 85.6802 449.559 86.5745 448.131 87.2805C446.706 87.9865 445.06 88.3395 443.2 88.3395C441.57 88.3395 440.04 88.0296 438.616 87.406C437.192 86.7824 435.943 85.9352 434.873 84.8644C433.802 83.7937 432.958 82.5346 432.339 81.0913C431.721 79.6479 431.413 78.1026 431.413 76.4592C431.413 74.8158 431.721 73.2744 432.339 71.8388C432.958 70.4033 433.802 69.1482 434.873 68.0775C435.943 67.0067 437.192 66.1595 438.616 65.5359C440.04 64.9122 441.57 64.6024 443.2 64.6024C444.831 64.6024 446.337 64.9083 447.773 65.5241C449.205 66.1399 450.454 66.9792 451.516 68.0539C452.579 69.1247 453.423 70.3798 454.05 71.8153C454.676 73.2508 454.987 74.7844 454.987 76.4121C454.987 76.7455 454.878 77.02 454.664 77.2358C454.45 77.4515 454.178 77.5613 453.847 77.5613H434.005L434.013 77.5535ZM452.571 75.5375C452.489 74.3255 452.19 73.192 451.668 72.1369C451.151 71.0818 450.47 70.1641 449.629 69.3835C448.788 68.603 447.819 67.9872 446.726 67.5401C445.632 67.093 444.465 66.8694 443.228 66.8694C441.99 66.8694 440.827 67.093 439.729 67.5401C438.632 67.9872 437.674 68.6069 436.849 69.3953C436.024 70.1837 435.355 71.1054 434.834 72.1605C434.316 73.2155 434.013 74.3412 433.931 75.5335H452.563L452.571 75.5375Z" fill="#FBFAFC"/>
<path d="M177.462 89.9319C177.633 89.7868 177.863 90.0221 177.715 90.1908C177.115 90.8771 176.524 91.5635 175.952 92.2695C174.909 93.5207 173.913 94.7993 173.002 96.125C172.107 97.4586 171.247 98.8078 170.632 100.22C170.01 101.6 169.64 103.13 169.967 104.205C170.126 104.734 170.414 105.146 170.87 105.491C171.317 105.832 171.913 106.123 172.562 106.307C173.208 106.491 173.893 106.601 174.602 106.648C175.314 106.687 176.049 106.656 176.789 106.589C178.275 106.44 179.789 106.138 181.33 105.77C182.89 105.397 184.424 104.993 185.941 104.55C192.016 102.754 197.911 100.239 203.768 97.5527C206.687 96.2035 209.586 94.815 212.446 93.3442C215.31 91.8851 218.147 90.379 220.945 88.7945C232.137 82.4837 242.826 75.2354 252.82 67.0851C254.069 66.0575 255.287 65.0378 256.544 63.9709C257.797 62.9158 259.019 61.8882 260.186 60.8292C261.353 59.7703 262.431 58.6603 263.373 57.4758C263.856 56.8874 264.26 56.2677 264.646 55.6363C264.992 54.9969 265.327 54.3419 265.533 53.6595C265.77 52.9849 265.918 52.2828 265.91 51.6513C265.91 51.012 265.759 50.4472 265.404 49.9765C265.058 49.502 264.509 49.1019 263.852 48.8195C263.194 48.541 262.455 48.3449 261.696 48.2116C260.167 47.9488 258.552 47.9331 256.944 47.9958C256.046 48.0233 255.143 48.09 254.24 48.1723C254.018 48.1919 253.964 47.8703 254.178 47.8154C256.645 47.18 259.178 46.7094 261.836 46.7721C262.688 46.8035 263.564 46.9015 264.439 47.1683C265.307 47.431 266.21 47.8899 266.93 48.6587C267.296 49.0352 267.568 49.498 267.794 49.9805C267.879 50.2236 267.977 50.4747 268.039 50.7218C268.086 50.9689 268.156 51.2277 268.175 51.4748C268.296 52.4789 268.187 53.4241 267.984 54.3223C267.591 56.1383 266.763 57.7778 265.801 59.2408C264.836 60.7116 263.719 62.0334 262.568 63.2649C261.42 64.5043 260.213 65.6575 259.046 66.787C257.89 67.9127 256.688 69.0815 255.473 70.1915C245.745 79.1223 234.962 86.8765 223.462 93.3481C220.583 94.9523 217.668 96.4937 214.711 97.9528C211.749 99.3961 208.765 100.792 205.733 102.075C199.69 104.636 193.471 107.001 186.957 108.507C185.326 108.892 183.688 109.19 182.061 109.468C180.419 109.743 178.715 109.978 176.956 110.002C175.205 110.021 173.352 109.861 171.562 109.147C170.679 108.798 169.811 108.307 169.033 107.578C168.259 106.86 167.648 105.809 167.484 104.73C167.305 103.652 167.472 102.64 167.745 101.749C168.013 100.847 168.422 100.055 168.85 99.2981C169.722 97.788 170.765 96.4663 171.878 95.2268C172.998 93.9953 174.17 92.8304 175.384 91.7243C176.065 91.1125 176.757 90.5163 177.454 89.928L177.462 89.9319Z" fill="#FBFAFC"/>
</svg>
